STARTFONT 2.1
FONT -memleek-leggie-bold-r-normal--24----c-120-CP437-0
SIZE 24 75 75
FONTBOUNDINGBOX 12 24 0 -4
COMMENT "Generated by fontforge, http://fontforge.sourceforge.net"
STARTPROPERTIES 18
AVERAGE_WIDTH 120
CAP_HEIGHT 14
CHARSET_ENCODING "0"
CHARSET_REGISTRY "CP437"
COMMENT "Please visit https://memleek.org/leggie"
COPYRIGHT "2012-2018 W. Kerr. Licensed under CC BY 4.0"
DEFAULT_CHAR 65535
FAMILY_NAME "leggie"
FONT "leggie"
FONT_ASCENT 20
FONT_DESCENT 4
FOUNDRY "memleek"
PIXEL_SIZE 24
SETWIDTH_NAME "Normal"
SLANT "R"
SPACING "C"
WEIGHT_NAME "Bold"
X_HEIGHT 10
ENDPROPERTIES
CHARS 554
STARTCHAR SPACE
ENCODING 32
SWIDTH 480 0
DWIDTH 12 0
BBX 1 1 11 -4
BITMAP
00
ENDCHAR
STARTCHAR EXCLAMATION
ENCODING 33
SWIDTH 480 0
DWIDTH 12 0
BBX 3 14 5 0
BITMAP
E0
E0
E0
E0
E0
E0
E0
E0
E0
00
00
E0
E0
E0
ENDCHAR
STARTCHAR QUOTATION
ENCODING 34
SWIDTH 480 0
DWIDTH 12 0
BBX 7 6 3 10
BITMAP
EE
EE
EE
EE
EE
EE
ENDCHAR
STARTCHAR NUMBER
ENCODING 35
SWIDTH 480 0
DWIDTH 12 0
BBX 11 14 1 0
BITMAP
3B80
3B80
3B80
3B80
FFE0
FFE0
3B80
3B80
FFE0
FFE0
3B80
3B80
3B80
3B80
ENDCHAR
STARTCHAR DOLLAR
ENCODING 36
SWIDTH 480 0
DWIDTH 12 0
BBX 11 20 1 -3
BITMAP
0700
0700
0700
3FE0
7FE0
E000
E000
E000
E000
7F80
3FC0
00E0
00E0
00E0
00E0
FFC0
FF80
1C00
1C00
1C00
ENDCHAR
STARTCHAR PERCENT
ENCODING 37
SWIDTH 480 0
DWIDTH 12 0
BBX 11 14 1 0
BITMAP
3800
7C00
EEE0
EFE0
7FC0
3F80
0F00
1E00
3F80
7FC0
FEE0
EEE0
07C0
0380
ENDCHAR
STARTCHAR AMPERSAND
ENCODING 38
SWIDTH 480 0
DWIDTH 12 0
BBX 11 14 1 0
BITMAP
3E00
7F00
E380
E380
E380
E380
7F00
7E00
E0E0
E1C0
E380
E780
7FC0
3CE0
ENDCHAR
STARTCHAR APOSTROPHE
ENCODING 39
SWIDTH 480 0
DWIDTH 12 0
BBX 3 6 5 10
BITMAP
E0
E0
E0
E0
E0
E0
ENDCHAR
STARTCHAR LEFT
ENCODING 40
SWIDTH 480 0
DWIDTH 12 0
BBX 5 22 5 -4
BITMAP
38
70
E0
E0
E0
E0
E0
E0
E0
E0
E0
E0
E0
E0
E0
E0
E0
E0
E0
E0
70
38
ENDCHAR
STARTCHAR RIGHT
ENCODING 41
SWIDTH 480 0
DWIDTH 12 0
BBX 5 22 3 -4
BITMAP
E0
70
38
38
38
38
38
38
38
38
38
38
38
38
38
38
38
38
38
38
70
E0
ENDCHAR
STARTCHAR ASTERISK
ENCODING 42
SWIDTH 480 0
DWIDTH 12 0
BBX 11 10 1 2
BITMAP
71C0
3B80
1F00
0E00
FFE0
FFE0
0E00
1F00
3B80
71C0
ENDCHAR
STARTCHAR PLUS
ENCODING 43
SWIDTH 480 0
DWIDTH 12 0
BBX 11 10 1 2
BITMAP
0E00
0E00
0E00
0E00
FFE0
FFE0
0E00
0E00
0E00
0E00
ENDCHAR
STARTCHAR COMMA
ENCODING 44
SWIDTH 480 0
DWIDTH 12 0
BBX 5 5 3 -2
BITMAP
38
38
38
70
E0
ENDCHAR
STARTCHAR HYPHEN-MINUS
ENCODING 45
SWIDTH 480 0
DWIDTH 12 0
BBX 11 3 1 6
BITMAP
FFE0
FFE0
FFE0
ENDCHAR
STARTCHAR FULL
ENCODING 46
SWIDTH 480 0
DWIDTH 12 0
BBX 3 3 5 0
BITMAP
E0
E0
E0
ENDCHAR
STARTCHAR SOLIDUS
ENCODING 47
SWIDTH 480 0
DWIDTH 12 0
BBX 11 18 1 -2
BITMAP
00E0
00E0
01C0
01C0
0380
0380
0700
0700
0E00
0E00
1C00
1C00
3800
3800
7000
7000
E000
E000
ENDCHAR
STARTCHAR DIGIT
ENCODING 48
SWIDTH 480 0
DWIDTH 12 0
BBX 11 14 1 0
BITMAP
3F80
7FC0
E0E0
E0E0
E1E0
E3E0
E6E0
ECE0
F8E0
F0E0
E0E0
E0E0
7FC0
3F80
ENDCHAR
STARTCHAR DIGIT
ENCODING 49
SWIDTH 480 0
DWIDTH 12 0
BBX 7 14 3 0
BITMAP
06
0E
1E
3E
7E
EE
0E
0E
0E
0E
0E
0E
0E
0E
ENDCHAR
STARTCHAR DIGIT
ENCODING 50
SWIDTH 480 0
DWIDTH 12 0
BBX 11 14 1 0
BITMAP
FF80
FFC0
00E0
00E0
00E0
00E0
01C0
0380
0700
0E00
1C00
3800
7FE0
FFE0
ENDCHAR
STARTCHAR DIGIT
ENCODING 51
SWIDTH 480 0
DWIDTH 12 0
BBX 11 14 1 0
BITMAP
FF80
FFC0
00E0
00E0
00E0
00E0
0FC0
0FC0
00E0
00E0
00E0
00E0
FFC0
FF80
ENDCHAR
STARTCHAR DIGIT
ENCODING 52
SWIDTH 480 0
DWIDTH 12 0
BBX 11 14 1 0
BITMAP
0060
00E0
01E0
03E0
07E0
0EE0
1CE0
38E0
7FE0
FFE0
00E0
00E0
00E0
00E0
ENDCHAR
STARTCHAR DIGIT
ENCODING 53
SWIDTH 480 0
DWIDTH 12 0
BBX 11 14 1 0
BITMAP
FFE0
FFE0
E000
E000
FF80
FFC0
00E0
00E0
00E0
00E0
00E0
00E0
FFC0
FF80
ENDCHAR
STARTCHAR DIGIT
ENCODING 54
SWIDTH 480 0
DWIDTH 12 0
BBX 11 14 1 0
BITMAP
3F80
7F80
E000
E000
FF80
FFC0
E0E0
E0E0
E0E0
E0E0
E0E0
E0E0
7FC0
3F80
ENDCHAR
STARTCHAR DIGIT
ENCODING 55
SWIDTH 480 0
DWIDTH 12 0
BBX 11 14 1 0
BITMAP
FFE0
FFE0
00E0
00E0
00E0
01C0
0380
0700
0E00
0E00
0E00
0E00
0E00
0E00
ENDCHAR
STARTCHAR DIGIT
ENCODING 56
SWIDTH 480 0
DWIDTH 12 0
BBX 11 14 1 0
BITMAP
3F80
7FC0
E0E0
E0E0
E0E0
E0E0
7FC0
7FC0
E0E0
E0E0
E0E0
E0E0
7FC0
3F80
ENDCHAR
STARTCHAR DIGIT
ENCODING 57
SWIDTH 480 0
DWIDTH 12 0
BBX 11 14 1 0
BITMAP
3F80
7FC0
E0E0
E0E0
E0E0
E0E0
E0E0
E0E0
7FE0
3FE0
00E0
00E0
3FC0
3F80
ENDCHAR
STARTCHAR COLON
ENCODING 58
SWIDTH 480 0
DWIDTH 12 0
BBX 3 10 5 0
BITMAP
E0
E0
E0
00
00
00
00
E0
E0
E0
ENDCHAR
STARTCHAR SEMICOLON
ENCODING 59
SWIDTH 480 0
DWIDTH 12 0
BBX 5 12 3 -2
BITMAP
38
38
38
00
00
00
00
38
38
38
70
E0
ENDCHAR
STARTCHAR LESS-THAN
ENCODING 60
SWIDTH 480 0
DWIDTH 12 0
BBX 11 18 1 -2
BITMAP
00E0
01C0
0380
0700
0E00
1C00
3800
7000
E000
E000
7000
3800
1C00
0E00
0700
0380
01C0
00E0
ENDCHAR
STARTCHAR EQUALS
ENCODING 61
SWIDTH 480 0
DWIDTH 12 0
BBX 11 8 1 3
BITMAP
FFE0
FFE0
FFE0
0000
0000
FFE0
FFE0
FFE0
ENDCHAR
STARTCHAR GREATER-THAN
ENCODING 62
SWIDTH 480 0
DWIDTH 12 0
BBX 11 18 1 -2
BITMAP
E000
7000
3800
1C00
0E00
0700
0380
01C0
00E0
00E0
01C0
0380
0700
0E00
1C00
3800
7000
E000
ENDCHAR
STARTCHAR QUESTION
ENCODING 63
SWIDTH 480 0
DWIDTH 12 0
BBX 11 14 1 0
BITMAP
FF80
FFC0
00E0
00E0
00E0
01C0
0380
0700
0E00
0000
0000
0E00
0E00
0E00
ENDCHAR
STARTCHAR COMMERCIAL
ENCODING 64
SWIDTH 480 0
DWIDTH 12 0
BBX 11 16 1 -2
BITMAP
1F00
3F80
71C0
E0E0
E7E0
EFE0
FCE0
FCE0
FCE0
FCE0
EFC0
E780
E000
7000
3F80
1F80
ENDCHAR
STARTCHAR LATIN
ENCODING 65
SWIDTH 480 0
DWIDTH 12 0
BBX 11 14 1 0
BITMAP
3F80
7FC0
E0E0
E0E0
E0E0
E0E0
E0E0
E0E0
FFE0
FFE0
E0E0
E0E0
E0E0
E0E0
ENDCHAR
STARTCHAR LATIN
ENCODING 66
SWIDTH 480 0
DWIDTH 12 0
BBX 11 14 1 0
BITMAP
FF80
FFC0
E0E0
E0E0
E0E0
E0E0
FFC0
FFC0
E0E0
E0E0
E0E0
E0E0
FFC0
FF80
ENDCHAR
STARTCHAR LATIN
ENCODING 67
SWIDTH 480 0
DWIDTH 12 0
BBX 11 14 1 0
BITMAP
3FE0
7FE0
E000
E000
E000
E000
E000
E000
E000
E000
E000
E000
7FE0
3FE0
ENDCHAR
STARTCHAR LATIN
ENCODING 68
SWIDTH 480 0
DWIDTH 12 0
BBX 11 14 1 0
BITMAP
FF80
FFC0
E0E0
E0E0
E0E0
E0E0
E0E0
E0E0
E0E0
E0E0
E0E0
E0E0
FFC0
FF80
ENDCHAR
STARTCHAR LATIN
ENCODING 69
SWIDTH 480 0
DWIDTH 12 0
BBX 11 14 1 0
BITMAP
FFE0
FFE0
E000
E000
E000
E000
FE00
FE00
E000
E000
E000
E000
FFE0
FFE0
ENDCHAR
STARTCHAR LATIN
ENCODING 70
SWIDTH 480 0
DWIDTH 12 0
BBX 11 14 1 0
BITMAP
FFE0
FFE0
E000
E000
E000
E000
FE00
FE00
E000
E000
E000
E000
E000
E000
ENDCHAR
STARTCHAR LATIN
ENCODING 71
SWIDTH 480 0
DWIDTH 12 0
BBX 11 14 1 0
BITMAP
3FE0
7FE0
E000
E000
E000
E000
E3E0
E3E0
E0E0
E0E0
E0E0
E0E0
7FE0
3FE0
ENDCHAR
STARTCHAR LATIN
ENCODING 72
SWIDTH 480 0
DWIDTH 12 0
BBX 11 14 1 0
BITMAP
E0E0
E0E0
E0E0
E0E0
E0E0
E0E0
FFE0
FFE0
E0E0
E0E0
E0E0
E0E0
E0E0
E0E0
ENDCHAR
STARTCHAR LATIN
ENCODING 73
SWIDTH 480 0
DWIDTH 12 0
BBX 5 14 4 0
BITMAP
F8
F8
70
70
70
70
70
70
70
70
70
70
F8
F8
ENDCHAR
STARTCHAR LATIN
ENCODING 74
SWIDTH 480 0
DWIDTH 12 0
BBX 11 14 1 0
BITMAP
00E0
00E0
00E0
00E0
00E0
00E0
00E0
00E0
00E0
00E0
00E0
E0E0
7FC0
3F80
ENDCHAR
STARTCHAR LATIN
ENCODING 75
SWIDTH 480 0
DWIDTH 12 0
BBX 11 14 1 0
BITMAP
E0E0
E1C0
E380
E700
EE00
FC00
F800
F800
FC00
EE00
E700
E380
E1C0
E0E0
ENDCHAR
STARTCHAR LATIN
ENCODING 76
SWIDTH 480 0
DWIDTH 12 0
BBX 11 14 1 0
BITMAP
E000
E000
E000
E000
E000
E000
E000
E000
E000
E000
E000
E000
FFE0
FFE0
ENDCHAR
STARTCHAR LATIN
ENCODING 77
SWIDTH 480 0
DWIDTH 12 0
BBX 11 14 1 0
BITMAP
C060
E0E0
F1E0
FBE0
FFE0
EEE0
E4E0
E0E0
E0E0
E0E0
E0E0
E0E0
E0E0
E0E0
ENDCHAR
STARTCHAR LATIN
ENCODING 78
SWIDTH 480 0
DWIDTH 12 0
BBX 11 14 1 0
BITMAP
E0E0
E0E0
E0E0
F0E0
F8E0
FCE0
EEE0
E7E0
E3E0
E1E0
E0E0
E0E0
E0E0
E0E0
ENDCHAR
STARTCHAR LATIN
ENCODING 79
SWIDTH 480 0
DWIDTH 12 0
BBX 11 14 1 0
BITMAP
3F80
7FC0
E0E0
E0E0
E0E0
E0E0
E0E0
E0E0
E0E0
E0E0
E0E0
E0E0
7FC0
3F80
ENDCHAR
STARTCHAR LATIN
ENCODING 80
SWIDTH 480 0
DWIDTH 12 0
BBX 11 14 1 0
BITMAP
FF80
FFC0
E0E0
E0E0
E0E0
E0E0
E0E0
E0E0
FFC0
FF80
E000
E000
E000
E000
ENDCHAR
STARTCHAR LATIN
ENCODING 81
SWIDTH 480 0
DWIDTH 12 0
BBX 11 14 1 0
BITMAP
3F80
7FC0
E0E0
E0E0
E0E0
E0E0
E0E0
E0E0
E0E0
E0E0
E760
E3A0
7DC0
3EE0
ENDCHAR
STARTCHAR LATIN
ENCODING 82
SWIDTH 480 0
DWIDTH 12 0
BBX 11 14 1 0
BITMAP
FF80
FFC0
E0E0
E0E0
E0E0
E0E0
E0E0
E0E0
FFC0
FF80
E700
E380
E1C0
E0E0
ENDCHAR
STARTCHAR LATIN
ENCODING 83
SWIDTH 480 0
DWIDTH 12 0
BBX 11 14 1 0
BITMAP
3FE0
7FE0
E000
E000
E000
E000
7F80
3FC0
00E0
00E0
00E0
00E0
FFC0
FF80
ENDCHAR
STARTCHAR LATIN
ENCODING 84
SWIDTH 480 0
DWIDTH 12 0
BBX 11 14 1 0
BITMAP
FFE0
FFE0
0E00
0E00
0E00
0E00
0E00
0E00
0E00
0E00
0E00
0E00
0E00
0E00
ENDCHAR
STARTCHAR LATIN
ENCODING 85
SWIDTH 480 0
DWIDTH 12 0
BBX 11 14 1 0
BITMAP
E0E0
E0E0
E0E0
E0E0
E0E0
E0E0
E0E0
E0E0
E0E0
E0E0
E0E0
E0E0
7FC0
3F80
ENDCHAR
STARTCHAR LATIN
ENCODING 86
SWIDTH 480 0
DWIDTH 12 0
BBX 11 14 1 0
BITMAP
E0E0
E0E0
E0E0
E0E0
71C0
71C0
71C0
3B80
3B80
3B80
1F00
1F00
0E00
0E00
ENDCHAR
STARTCHAR LATIN
ENCODING 87
SWIDTH 480 0
DWIDTH 12 0
BBX 11 14 1 0
BITMAP
E0E0
E0E0
E0E0
E0E0
E0E0
E0E0
E0E0
E4E0
EEE0
FFE0
FBE0
F1E0
E0E0
C060
ENDCHAR
STARTCHAR LATIN
ENCODING 88
SWIDTH 480 0
DWIDTH 12 0
BBX 11 14 1 0
BITMAP
E0E0
E0E0
E0E0
71C0
3B80
1F00
0E00
0E00
1F00
3B80
71C0
E0E0
E0E0
E0E0
ENDCHAR
STARTCHAR LATIN
ENCODING 89
SWIDTH 480 0
DWIDTH 12 0
BBX 11 14 1 0
BITMAP
E0E0
E0E0
E0E0
E0E0
71C0
3B80
1F00
0E00
0E00
0E00
0E00
0E00
0E00
0E00
ENDCHAR
STARTCHAR LATIN
ENCODING 90
SWIDTH 480 0
DWIDTH 12 0
BBX 11 14 1 0
BITMAP
FFE0
FFE0
00E0
01C0
0380
0700
0E00
1C00
3800
7000
E000
E000
FFE0
FFE0
ENDCHAR
STARTCHAR LEFT
ENCODING 91
SWIDTH 480 0
DWIDTH 12 0
BBX 5 22 5 -4
BITMAP
F8
F8
E0
E0
E0
E0
E0
E0
E0
E0
E0
E0
E0
E0
E0
E0
E0
E0
E0
E0
F8
F8
ENDCHAR
STARTCHAR REVERSE
ENCODING 92
SWIDTH 480 0
DWIDTH 12 0
BBX 11 18 1 -2
BITMAP
E000
E000
7000
7000
3800
3800
1C00
1C00
0E00
0E00
0700
0700
0380
0380
01C0
01C0
00E0
00E0
ENDCHAR
STARTCHAR RIGHT
ENCODING 93
SWIDTH 480 0
DWIDTH 12 0
BBX 5 22 3 -4
BITMAP
F8
F8
38
38
38
38
38
38
38
38
38
38
38
38
38
38
38
38
38
38
F8
F8
ENDCHAR
STARTCHAR CIRCUMFLEX
ENCODING 94
SWIDTH 480 0
DWIDTH 12 0
BBX 11 6 1 11
BITMAP
0400
0E00
1F00
3B80
71C0
E0E0
ENDCHAR
STARTCHAR LOW
ENCODING 95
SWIDTH 480 0
DWIDTH 12 0
BBX 11 3 1 -3
BITMAP
FFE0
FFE0
FFE0
ENDCHAR
STARTCHAR GRAVE
ENCODING 96
SWIDTH 480 0
DWIDTH 12 0
BBX 7 5 3 11
BITMAP
E0
70
38
1C
0E
ENDCHAR
STARTCHAR LATIN
ENCODING 97
SWIDTH 480 0
DWIDTH 12 0
BBX 11 10 1 0
BITMAP
3F80
3FC0
00E0
00E0
3FE0
7FE0
E0E0
E0E0
7FE0
3FE0
ENDCHAR
STARTCHAR LATIN
ENCODING 98
SWIDTH 480 0
DWIDTH 12 0
BBX 11 16 1 0
BITMAP
E000
E000
E000
E000
E000
E000
FF80
FFC0
E0E0
E0E0
E0E0
E0E0
E0E0
E0E0
FFC0
FF80
ENDCHAR
STARTCHAR LATIN
ENCODING 99
SWIDTH 480 0
DWIDTH 12 0
BBX 11 10 1 0
BITMAP
3FE0
7FE0
E000
E000
E000
E000
E000
E000
7FE0
3FE0
ENDCHAR
STARTCHAR LATIN
ENCODING 100
SWIDTH 480 0
DWIDTH 12 0
BBX 11 16 1 0
BITMAP
00E0
00E0
00E0
00E0
00E0
00E0
3FE0
7FE0
E0E0
E0E0
E0E0
E0E0
E0E0
E0E0
7FE0
3FE0
ENDCHAR
STARTCHAR LATIN
ENCODING 101
SWIDTH 480 0
DWIDTH 12 0
BBX 11 10 1 0
BITMAP
3F80
7FC0
E0E0
E0E0
FFE0
FFE0
E000
E000
7F80
3F80
ENDCHAR
STARTCHAR LATIN
ENCODING 102
SWIDTH 480 0
DWIDTH 12 0
BBX 7 16 3 0
BITMAP
3E
7E
E0
E0
E0
E0
F8
F8
E0
E0
E0
E0
E0
E0
E0
E0
ENDCHAR
STARTCHAR LATIN
ENCODING 103
SWIDTH 480 0
DWIDTH 12 0
BBX 11 14 1 -4
BITMAP
3FE0
7FE0
E0E0
E0E0
E0E0
E0E0
E0E0
E0E0
7FE0
3FE0
00E0
00E0
1FC0
1F80
ENDCHAR
STARTCHAR LATIN
ENCODING 104
SWIDTH 480 0
DWIDTH 12 0
BBX 11 16 1 0
BITMAP
E000
E000
E000
E000
E000
E000
FF80
FFC0
E0E0
E0E0
E0E0
E0E0
E0E0
E0E0
E0E0
E0E0
ENDCHAR
STARTCHAR LATIN
ENCODING 105
SWIDTH 480 0
DWIDTH 12 0
BBX 4 15 4 0
BITMAP
70
70
70
00
00
F0
F0
70
70
70
70
70
70
70
70
ENDCHAR
STARTCHAR LATIN
ENCODING 106
SWIDTH 480 0
DWIDTH 12 0
BBX 5 19 3 -4
BITMAP
38
38
38
00
00
78
78
38
38
38
38
38
38
38
38
38
38
70
E0
ENDCHAR
STARTCHAR LATIN
ENCODING 107
SWIDTH 480 0
DWIDTH 12 0
BBX 9 16 2 0
BITMAP
E000
E000
E000
E000
E000
E000
E380
E700
EE00
FC00
F800
F800
FC00
EE00
E700
E380
ENDCHAR
STARTCHAR LATIN
ENCODING 108
SWIDTH 480 0
DWIDTH 12 0
BBX 7 16 3 0
BITMAP
E0
E0
E0
E0
E0
E0
E0
E0
E0
E0
E0
E0
E0
E0
7E
3E
ENDCHAR
STARTCHAR LATIN
ENCODING 109
SWIDTH 480 0
DWIDTH 12 0
BBX 11 10 1 0
BITMAP
FB80
FFC0
EEE0
EEE0
EEE0
EEE0
EEE0
EEE0
E0E0
E0E0
ENDCHAR
STARTCHAR LATIN
ENCODING 110
SWIDTH 480 0
DWIDTH 12 0
BBX 11 10 1 0
BITMAP
FF80
FFC0
E0E0
E0E0
E0E0
E0E0
E0E0
E0E0
E0E0
E0E0
ENDCHAR
STARTCHAR LATIN
ENCODING 111
SWIDTH 480 0
DWIDTH 12 0
BBX 11 10 1 0
BITMAP
3F80
7FC0
E0E0
E0E0
E0E0
E0E0
E0E0
E0E0
7FC0
3F80
ENDCHAR
STARTCHAR LATIN
ENCODING 112
SWIDTH 480 0
DWIDTH 12 0
BBX 11 14 1 -4
BITMAP
FF80
FFC0
E0E0
E0E0
E0E0
E0E0
E0E0
E0E0
FFC0
FF80
E000
E000
E000
E000
ENDCHAR
STARTCHAR LATIN
ENCODING 113
SWIDTH 480 0
DWIDTH 12 0
BBX 11 14 1 -4
BITMAP
3FE0
7FE0
E0E0
E0E0
E0E0
E0E0
E0E0
E0E0
7FE0
3FE0
00E0
00E0
00E0
00E0
ENDCHAR
STARTCHAR LATIN
ENCODING 114
SWIDTH 480 0
DWIDTH 12 0
BBX 11 10 1 0
BITMAP
EFE0
FFE0
F800
F000
E000
E000
E000
E000
E000
E000
ENDCHAR
STARTCHAR LATIN
ENCODING 115
SWIDTH 480 0
DWIDTH 12 0
BBX 11 10 1 0
BITMAP
3FE0
7FE0
E000
E000
7F80
3FC0
00E0
00E0
FFC0
FF80
ENDCHAR
STARTCHAR LATIN
ENCODING 116
SWIDTH 480 0
DWIDTH 12 0
BBX 9 16 2 0
BITMAP
3800
3800
3800
3800
3800
3800
FE00
FE00
3800
3800
3800
3800
3800
3800
1F80
0F80
ENDCHAR
STARTCHAR LATIN
ENCODING 117
SWIDTH 480 0
DWIDTH 12 0
BBX 11 10 1 0
BITMAP
E0E0
E0E0
E0E0
E0E0
E0E0
E0E0
E0E0
E0E0
7FE0
3FE0
ENDCHAR
STARTCHAR LATIN
ENCODING 118
SWIDTH 480 0
DWIDTH 12 0
BBX 11 10 1 0
BITMAP
E0E0
E0E0
E0E0
71C0
71C0
3B80
3B80
1F00
1F00
0E00
ENDCHAR
STARTCHAR LATIN
ENCODING 119
SWIDTH 480 0
DWIDTH 12 0
BBX 11 10 1 0
BITMAP
E0E0
E0E0
E0E0
E4E0
EEE0
FFE0
FBE0
F1E0
E0E0
C060
ENDCHAR
STARTCHAR LATIN
ENCODING 120
SWIDTH 480 0
DWIDTH 12 0
BBX 11 10 1 0
BITMAP
E0E0
71C0
3B80
1F00
0E00
0E00
1F00
3B80
71C0
E0E0
ENDCHAR
STARTCHAR LATIN
ENCODING 121
SWIDTH 480 0
DWIDTH 12 0
BBX 11 14 1 -4
BITMAP
E0E0
E0E0
E0E0
E0E0
E0E0
E0E0
E0E0
E0E0
7FE0
3FE0
00E0
00E0
1FC0
1F80
ENDCHAR
STARTCHAR LATIN
ENCODING 122
SWIDTH 480 0
DWIDTH 12 0
BBX 11 10 1 0
BITMAP
FFE0
FFC0
0380
0700
0E00
1C00
3800
7000
FFE0
FFE0
ENDCHAR
STARTCHAR LEFT
ENCODING 123
SWIDTH 480 0
DWIDTH 12 0
BBX 7 22 3 -4
BITMAP
0E
1C
38
38
38
38
38
38
38
38
F0
F0
38
38
38
38
38
38
38
38
1C
0E
ENDCHAR
STARTCHAR VERTICAL
ENCODING 124
SWIDTH 480 0
DWIDTH 12 0
BBX 3 24 5 -4
BITMAP
E0
E0
E0
E0
E0
E0
E0
E0
E0
E0
E0
E0
E0
E0
E0
E0
E0
E0
E0
E0
E0
E0
E0
E0
ENDCHAR
STARTCHAR RIGHT
ENCODING 125
SWIDTH 480 0
DWIDTH 12 0
BBX 7 22 3 -4
BITMAP
E0
70
38
38
38
38
38
38
38
38
1E
1E
38
38
38
38
38
38
38
38
70
E0
ENDCHAR
STARTCHAR TILDE
ENCODING 126
SWIDTH 480 0
DWIDTH 12 0
BBX 11 4 1 4
BITMAP
3CE0
7EE0
EFC0
E780
ENDCHAR
STARTCHAR LATIN
ENCODING 128
SWIDTH 480 0
DWIDTH 12 0
BBX 11 18 1 -4
BITMAP
3FE0
7FE0
E000
E000
E000
E000
E000
E000
E000
E000
E000
E000
7FE0
3FE0
0700
0380
3F80
1F00
ENDCHAR
STARTCHAR LATIN
ENCODING 129
SWIDTH 480 0
DWIDTH 12 0
BBX 11 15 1 0
BITMAP
71C0
71C0
71C0
0000
0000
E0E0
E0E0
E0E0
E0E0
E0E0
E0E0
E0E0
E0E0
7FE0
3FE0
ENDCHAR
STARTCHAR LATIN
ENCODING 130
SWIDTH 480 0
DWIDTH 12 0
BBX 11 16 1 0
BITMAP
01C0
0380
0700
0E00
0000
0000
3F80
7FC0
E0E0
E0E0
FFE0
FFE0
E000
E000
7F80
3F80
ENDCHAR
STARTCHAR LATIN
ENCODING 131
SWIDTH 480 0
DWIDTH 12 0
BBX 11 17 1 0
BITMAP
0400
0E00
1F00
3B80
71C0
0000
0000
3F80
3FC0
00E0
00E0
3FE0
7FE0
E0E0
E0E0
7FE0
3FE0
ENDCHAR
STARTCHAR LATIN
ENCODING 132
SWIDTH 480 0
DWIDTH 12 0
BBX 11 15 1 0
BITMAP
71C0
71C0
71C0
0000
0000
3F80
3FC0
00E0
00E0
3FE0
7FE0
E0E0
E0E0
7FE0
3FE0
ENDCHAR
STARTCHAR LATIN
ENCODING 133
SWIDTH 480 0
DWIDTH 12 0
BBX 11 16 1 0
BITMAP
7000
3800
1C00
0E00
0000
0000
3F80
3FC0
00E0
00E0
3FE0
7FE0
E0E0
E0E0
7FE0
3FE0
ENDCHAR
STARTCHAR LATIN
ENCODING 134
SWIDTH 480 0
DWIDTH 12 0
BBX 11 18 1 0
BITMAP
0E00
1F00
3B80
3B80
1F00
0E00
0000
0000
3F80
3FC0
00E0
00E0
3FE0
7FE0
E0E0
E0E0
7FE0
3FE0
ENDCHAR
STARTCHAR LATIN
ENCODING 135
SWIDTH 480 0
DWIDTH 12 0
BBX 11 14 1 -4
BITMAP
3FE0
7FE0
E000
E000
E000
E000
E000
E000
7FE0
3FE0
0700
0380
3F80
1F00
ENDCHAR
STARTCHAR LATIN
ENCODING 136
SWIDTH 480 0
DWIDTH 12 0
BBX 11 17 1 0
BITMAP
0400
0E00
1F00
3B80
71C0
0000
0000
3F80
7FC0
E0E0
E0E0
FFE0
FFE0
E000
E000
7F80
3F80
ENDCHAR
STARTCHAR LATIN
ENCODING 137
SWIDTH 480 0
DWIDTH 12 0
BBX 11 15 1 0
BITMAP
71C0
71C0
71C0
0000
0000
3F80
7FC0
E0E0
E0E0
FFE0
FFE0
E000
E000
7F80
3F80
ENDCHAR
STARTCHAR LATIN
ENCODING 138
SWIDTH 480 0
DWIDTH 12 0
BBX 11 16 1 0
BITMAP
7000
3800
1C00
0E00
0000
0000
3F80
7FC0
E0E0
E0E0
FFE0
FFE0
E000
E000
7F80
3F80
ENDCHAR
STARTCHAR LATIN
ENCODING 139
SWIDTH 480 0
DWIDTH 12 0
BBX 9 15 2 0
BITMAP
E380
E380
E380
0000
0000
3C00
3C00
1C00
1C00
1C00
1C00
1C00
1C00
1C00
1C00
ENDCHAR
STARTCHAR LATIN
ENCODING 140
SWIDTH 480 0
DWIDTH 12 0
BBX 9 17 2 0
BITMAP
0800
1C00
3E00
7700
E380
0000
0000
3C00
3C00
1C00
1C00
1C00
1C00
1C00
1C00
1C00
1C00
ENDCHAR
STARTCHAR LATIN
ENCODING 141
SWIDTH 480 0
DWIDTH 12 0
BBX 6 16 2 0
BITMAP
E0
70
38
1C
00
00
3C
3C
1C
1C
1C
1C
1C
1C
1C
1C
ENDCHAR
STARTCHAR LATIN
ENCODING 142
SWIDTH 480 0
DWIDTH 12 0
BBX 11 19 1 0
BITMAP
71C0
71C0
71C0
0000
0000
3F80
7FC0
E0E0
E0E0
E0E0
E0E0
E0E0
E0E0
FFE0
FFE0
E0E0
E0E0
E0E0
E0E0
ENDCHAR
STARTCHAR LATIN
ENCODING 143
SWIDTH 480 0
DWIDTH 12 0
BBX 11 20 1 0
BITMAP
0E00
1F00
3B80
1F00
0E00
0000
3F80
7FC0
E0E0
E0E0
E0E0
E0E0
E0E0
E0E0
FFE0
FFE0
E0E0
E0E0
E0E0
E0E0
ENDCHAR
STARTCHAR LATIN
ENCODING 144
SWIDTH 480 0
DWIDTH 12 0
BBX 11 20 1 0
BITMAP
01C0
0380
0700
0E00
0000
0000
FFE0
FFE0
E000
E000
E000
E000
FE00
FE00
E000
E000
E000
E000
FFE0
FFE0
ENDCHAR
STARTCHAR LATIN
ENCODING 145
SWIDTH 480 0
DWIDTH 12 0
BBX 12 10 0 0
BITMAP
3DC0
3FE0
0770
0770
3FF0
7FF0
E700
E700
7FF0
3DF0
ENDCHAR
STARTCHAR LATIN
ENCODING 146
SWIDTH 480 0
DWIDTH 12 0
BBX 12 14 0 0
BITMAP
3FF0
7FF0
E700
E700
E700
E700
E7E0
E7E0
FF00
FF00
E700
E700
E7F0
E7F0
ENDCHAR
STARTCHAR LATIN
ENCODING 147
SWIDTH 480 0
DWIDTH 12 0
BBX 11 17 1 0
BITMAP
0400
0E00
1F00
3B80
71C0
0000
0000
3F80
7FC0
E0E0
E0E0
E0E0
E0E0
E0E0
E0E0
7FC0
3F80
ENDCHAR
STARTCHAR LATIN
ENCODING 148
SWIDTH 480 0
DWIDTH 12 0
BBX 11 15 1 0
BITMAP
71C0
71C0
71C0
0000
0000
3F80
7FC0
E0E0
E0E0
E0E0
E0E0
E0E0
E0E0
7FC0
3F80
ENDCHAR
STARTCHAR LATIN
ENCODING 149
SWIDTH 480 0
DWIDTH 12 0
BBX 11 16 1 0
BITMAP
7000
3800
1C00
0E00
0000
0000
3F80
7FC0
E0E0
E0E0
E0E0
E0E0
E0E0
E0E0
7FC0
3F80
ENDCHAR
STARTCHAR LATIN
ENCODING 150
SWIDTH 480 0
DWIDTH 12 0
BBX 11 17 1 0
BITMAP
0400
0E00
1F00
3B80
71C0
0000
0000
E0E0
E0E0
E0E0
E0E0
E0E0
E0E0
E0E0
E0E0
7FE0
3FE0
ENDCHAR
STARTCHAR LATIN
ENCODING 151
SWIDTH 480 0
DWIDTH 12 0
BBX 11 16 1 0
BITMAP
7000
3800
1C00
0E00
0000
0000
E0E0
E0E0
E0E0
E0E0
E0E0
E0E0
E0E0
E0E0
7FE0
3FE0
ENDCHAR
STARTCHAR LATIN
ENCODING 152
SWIDTH 480 0
DWIDTH 12 0
BBX 11 19 1 -4
BITMAP
71C0
71C0
71C0
0000
0000
E0E0
E0E0
E0E0
E0E0
E0E0
E0E0
E0E0
E0E0
7FE0
3FE0
00E0
00E0
1F80
1F80
ENDCHAR
STARTCHAR LATIN
ENCODING 153
SWIDTH 480 0
DWIDTH 12 0
BBX 11 19 1 0
BITMAP
71C0
71C0
71C0
0000
0000
3F80
7FC0
E0E0
E0E0
E0E0
E0E0
E0E0
E0E0
E0E0
E0E0
E0E0
E0E0
7FC0
3F80
ENDCHAR
STARTCHAR LATIN
ENCODING 154
SWIDTH 480 0
DWIDTH 12 0
BBX 11 19 1 0
BITMAP
71C0
71C0
71C0
0000
0000
E0E0
E0E0
E0E0
E0E0
E0E0
E0E0
E0E0
E0E0
E0E0
E0E0
E0E0
E0E0
7FC0
3F80
ENDCHAR
STARTCHAR CENT
ENCODING 155
SWIDTH 480 0
DWIDTH 12 0
BBX 11 16 1 -3
BITMAP
0380
0380
0380
3FE0
7FE0
E000
E000
E000
E000
E000
E000
7FE0
3FE0
0E00
0E00
0E00
ENDCHAR
STARTCHAR POUND
ENCODING 156
SWIDTH 480 0
DWIDTH 12 0
BBX 11 14 1 0
BITMAP
0FC0
1FC0
3800
3800
3800
3800
FE00
FE00
3800
3800
3800
3800
FFE0
FFE0
ENDCHAR
STARTCHAR YEN
ENCODING 157
SWIDTH 480 0
DWIDTH 12 0
BBX 11 14 1 0
BITMAP
E0E0
E0E0
E0E0
E0E0
71C0
3B80
1F00
0E00
7FC0
0E00
7FC0
0E00
0E00
0E00
ENDCHAR
STARTCHAR LATIN
ENCODING 160
SWIDTH 480 0
DWIDTH 12 0
BBX 11 16 1 0
BITMAP
01C0
0380
0700
0E00
0000
0000
3F80
3FC0
00E0
00E0
3FE0
7FE0
E0E0
E0E0
7FE0
3FE0
ENDCHAR
STARTCHAR LATIN
ENCODING 161
SWIDTH 480 0
DWIDTH 12 0
BBX 7 16 4 0
BITMAP
0E
1C
38
70
00
00
F0
F0
70
70
70
70
70
70
70
70
ENDCHAR
STARTCHAR LATIN
ENCODING 162
SWIDTH 480 0
DWIDTH 12 0
BBX 11 16 1 0
BITMAP
01C0
0380
0700
0E00
0000
0000
3F80
7FC0
E0E0
E0E0
E0E0
E0E0
E0E0
E0E0
7FC0
3F80
ENDCHAR
STARTCHAR LATIN
ENCODING 163
SWIDTH 480 0
DWIDTH 12 0
BBX 11 16 1 0
BITMAP
01C0
0380
0700
0E00
0000
0000
E0E0
E0E0
E0E0
E0E0
E0E0
E0E0
E0E0
E0E0
7FE0
3FE0
ENDCHAR
STARTCHAR LATIN
ENCODING 164
SWIDTH 480 0
DWIDTH 12 0
BBX 11 16 1 0
BITMAP
38E0
7EE0
EFC0
E380
0000
0000
FF80
FFC0
E0E0
E0E0
E0E0
E0E0
E0E0
E0E0
E0E0
E0E0
ENDCHAR
STARTCHAR LATIN
ENCODING 165
SWIDTH 480 0
DWIDTH 12 0
BBX 11 20 1 0
BITMAP
38E0
7EE0
EFC0
E380
0000
0000
E0E0
E0E0
E0E0
F0E0
F8E0
FCE0
EEE0
E7E0
E3E0
E1E0
E0E0
E0E0
E0E0
E0E0
ENDCHAR
STARTCHAR FEMININE
ENCODING 166
SWIDTH 480 0
DWIDTH 12 0
BBX 11 10 1 6
BITMAP
3F80
3FC0
00E0
00E0
3FE0
7FE0
E0E0
E0E0
7FE0
3FE0
ENDCHAR
STARTCHAR MASCULINE
ENCODING 167
SWIDTH 480 0
DWIDTH 12 0
BBX 11 10 1 6
BITMAP
3F80
7FC0
E0E0
E0E0
E0E0
E0E0
E0E0
E0E0
7FC0
3F80
ENDCHAR
STARTCHAR INVERTED
ENCODING 168
SWIDTH 480 0
DWIDTH 12 0
BBX 11 14 1 -4
BITMAP
0E00
0E00
0E00
0000
0000
0E00
1C00
3800
7000
E000
E000
E000
7FE0
3FE0
ENDCHAR
STARTCHAR NOT
ENCODING 170
SWIDTH 480 0
DWIDTH 12 0
BBX 11 5 1 3
BITMAP
FFE0
FFE0
00E0
00E0
00E0
ENDCHAR
STARTCHAR VULGAR
ENCODING 171
SWIDTH 480 0
DWIDTH 12 0
BBX 12 24 0 -4
BITMAP
0C00
1C00
3C00
7C00
FC00
DC00
1C00
1C00
1C00
1C00
1C00
1C00
1FC0
1FE0
0070
0070
0070
0070
00E0
01C0
0380
0700
0FF0
1FF0
ENDCHAR
STARTCHAR VULGAR
ENCODING 172
SWIDTH 480 0
DWIDTH 12 0
BBX 12 24 0 -4
BITMAP
0600
0E00
1E00
3E00
7E00
EE00
0E00
0E00
0E00
0E00
0E00
0E00
0030
0070
00F0
01F0
03B0
0730
0FF0
1FF0
0070
0070
0070
0070
ENDCHAR
STARTCHAR INVERTED
ENCODING 173
SWIDTH 480 0
DWIDTH 12 0
BBX 4 14 5 -4
BITMAP
E0
E0
F0
00
00
E0
E0
E0
E0
E0
E0
E0
E0
E0
ENDCHAR
STARTCHAR LEFT-POINTING
ENCODING 174
SWIDTH 480 0
DWIDTH 12 0
BBX 11 10 1 2
BITMAP
0EE0
1DC0
3B80
7700
EE00
EE00
7700
3B80
1DC0
0EE0
ENDCHAR
STARTCHAR RIGHT-POINTING
ENCODING 175
SWIDTH 480 0
DWIDTH 12 0
BBX 11 10 1 2
BITMAP
EE00
7700
3B80
1DC0
0EE0
0EE0
1DC0
3B80
7700
EE00
ENDCHAR
STARTCHAR GREEK
ENCODING 224
SWIDTH 480 0
DWIDTH 12 0
BBX 11 10 1 0
BITMAP
3F60
7FE0
E1C0
E1C0
E1C0
E1C0
E1C0
E1C0
7FE0
3EE0
ENDCHAR
STARTCHAR LATIN
ENCODING 225
SWIDTH 480 0
DWIDTH 12 0
BBX 11 16 1 0
BITMAP
3E00
7F00
E380
E380
E380
E380
E700
EE00
E700
E380
E1C0
E0E0
E0E0
E0E0
EFC0
EF80
ENDCHAR
STARTCHAR GREEK
ENCODING 226
SWIDTH 480 0
DWIDTH 12 0
BBX 11 14 1 0
BITMAP
FFE0
FFE0
E000
E000
E000
E000
E000
E000
E000
E000
E000
E000
E000
E000
ENDCHAR
STARTCHAR GREEK
ENCODING 227
SWIDTH 480 0
DWIDTH 12 0
BBX 11 10 1 0
BITMAP
FFE0
FFE0
3B80
3B80
3B80
3B80
3B80
3B80
F3E0
E1E0
ENDCHAR
STARTCHAR GREEK
ENCODING 228
SWIDTH 480 0
DWIDTH 12 0
BBX 11 14 1 0
BITMAP
FFE0
FFE0
E000
7000
3800
1C00
0E00
0E00
1C00
3800
7000
E000
FFE0
FFE0
ENDCHAR
STARTCHAR GREEK
ENCODING 229
SWIDTH 480 0
DWIDTH 12 0
BBX 11 10 1 0
BITMAP
3FE0
7FE0
E1C0
E0E0
E0E0
E0E0
E0E0
E0E0
7FC0
3F80
ENDCHAR
STARTCHAR MICRO
ENCODING 230
SWIDTH 480 0
DWIDTH 12 0
BBX 11 14 1 -4
BITMAP
E0E0
E0E0
E0E0
E0E0
E0E0
E0E0
E0E0
E0E0
FFC0
FF80
E000
E000
E000
E000
ENDCHAR
STARTCHAR GREEK
ENCODING 231
SWIDTH 480 0
DWIDTH 12 0
BBX 11 10 1 0
BITMAP
FFE0
FFE0
0E00
0E00
0E00
0E00
0E00
0E00
0E00
0700
ENDCHAR
STARTCHAR GREEK
ENCODING 232
SWIDTH 480 0
DWIDTH 12 0
BBX 11 14 1 0
BITMAP
0E00
0E00
3F80
7FC0
EEE0
EEE0
EEE0
EEE0
EEE0
EEE0
7FC0
3F80
0E00
0E00
ENDCHAR
STARTCHAR GREEK
ENCODING 233
SWIDTH 480 0
DWIDTH 12 0
BBX 11 14 1 0
BITMAP
3F80
7FC0
E0E0
E0E0
E0E0
E0E0
FFE0
FFE0
E0E0
E0E0
E0E0
E0E0
7FC0
3F80
ENDCHAR
STARTCHAR GREEK
ENCODING 234
SWIDTH 480 0
DWIDTH 12 0
BBX 11 14 1 0
BITMAP
3F80
7FC0
E0E0
E0E0
E0E0
E0E0
E0E0
E0E0
E0E0
E0E0
7BC0
3B80
FBE0
FBE0
ENDCHAR
STARTCHAR GREEK
ENCODING 235
SWIDTH 480 0
DWIDTH 12 0
BBX 11 16 1 0
BITMAP
3F80
7F80
E000
E000
7800
1E00
3F80
7FC0
E0E0
E0E0
E0E0
E0E0
E0E0
E0E0
7FC0
3F80
ENDCHAR
STARTCHAR GREEK
ENCODING 237
SWIDTH 480 0
DWIDTH 12 0
BBX 11 14 1 -4
BITMAP
0380
E7C0
EEE0
EEE0
EEE0
EEE0
EEE0
EEE0
7FC0
3F80
0E00
0E00
0E00
0E00
ENDCHAR
STARTCHAR GREEK
ENCODING 238
SWIDTH 480 0
DWIDTH 12 0
BBX 11 10 1 0
BITMAP
3FE0
7FE0
E000
E000
7E00
7E00
E000
E000
7FE0
3FE0
ENDCHAR
STARTCHAR PLUS-MINUS
ENCODING 241
SWIDTH 480 0
DWIDTH 12 0
BBX 11 14 1 0
BITMAP
0E00
0E00
0E00
0E00
FFE0
FFE0
0E00
0E00
0E00
0E00
0000
FFE0
FFE0
FFE0
ENDCHAR
STARTCHAR DIVISION
ENCODING 246
SWIDTH 480 0
DWIDTH 12 0
BBX 11 13 1 1
BITMAP
0E00
0E00
0E00
0000
0000
FFE0
FFE0
FFE0
0000
0000
0E00
0E00
0E00
ENDCHAR
STARTCHAR DEGREE
ENCODING 248
SWIDTH 480 0
DWIDTH 12 0
BBX 7 6 3 8
BITMAP
38
7C
EE
EE
7C
38
ENDCHAR
STARTCHAR MIDDLE
ENCODING 250
SWIDTH 480 0
DWIDTH 12 0
BBX 3 3 5 6
BITMAP
E0
E0
E0
ENDCHAR
STARTCHAR SUPERSCRIPT
ENCODING 253
SWIDTH 480 0
DWIDTH 12 0
BBX 11 14 1 6
BITMAP
FF80
FFC0
00E0
00E0
00E0
00E0
01C0
0380
0700
0E00
1C00
3800
7FE0
FFE0
ENDCHAR
STARTCHAR NO-BREAK
ENCODING 255
SWIDTH 480 0
DWIDTH 12 0
BBX 1 1 11 -4
BITMAP
00
ENDCHAR
STARTCHAR CURRENCY
ENCODING -1
SWIDTH 480 0
DWIDTH 12 0
BBX 11 10 1 2
BITMAP
E0E0
71C0
3F80
1F00
3B80
3B80
1F00
3F80
71C0
E0E0
ENDCHAR
STARTCHAR BROKEN
ENCODING -1
SWIDTH 480 0
DWIDTH 12 0
BBX 3 24 5 -4
BITMAP
E0
E0
E0
E0
E0
E0
E0
E0
E0
E0
00
00
00
00
E0
E0
E0
E0
E0
E0
E0
E0
E0
E0
ENDCHAR
STARTCHAR SECTION
ENCODING -1
SWIDTH 480 0
DWIDTH 12 0
BBX 11 22 1 -4
BITMAP
3FE0
7FE0
E000
E000
E000
E000
7F80
7FC0
E0E0
E0E0
E0E0
E0E0
E0E0
E0E0
7FC0
3FC0
00E0
00E0
00E0
00E0
FFC0
FF80
ENDCHAR
STARTCHAR DIAERESIS
ENCODING -1
SWIDTH 480 0
DWIDTH 12 0
BBX 8 3 3 16
BITMAP
E7
E7
E7
ENDCHAR
STARTCHAR COPYRIGHT
ENCODING -1
SWIDTH 480 0
DWIDTH 12 0
BBX 12 16 0 -1
BITMAP
1F80
3FC0
70E0
E070
E7F0
EFF0
FC70
F870
F870
FC70
EFF0
E7F0
E070
70E0
3FC0
1F80
ENDCHAR
STARTCHAR SOFT
ENCODING -1
SWIDTH 480 0
DWIDTH 12 0
BBX 7 3 3 5
BITMAP
FE
FE
FE
ENDCHAR
STARTCHAR REGISTERED
ENCODING -1
SWIDTH 480 0
DWIDTH 12 0
BBX 12 16 0 3
BITMAP
1F80
3FC0
70E0
E070
FF70
FFF0
F9F0
F9F0
FFF0
FF70
FBF0
F9F0
E070
70E0
3FC0
1F80
ENDCHAR
STARTCHAR MACRON
ENCODING -1
SWIDTH 480 0
DWIDTH 12 0
BBX 11 3 1 14
BITMAP
FFE0
FFE0
FFE0
ENDCHAR
STARTCHAR SUPERSCRIPT
ENCODING -1
SWIDTH 480 0
DWIDTH 12 0
BBX 11 14 1 6
BITMAP
FF80
FFC0
00E0
00E0
00E0
00E0
0FC0
0FC0
00E0
00E0
00E0
00E0
FFC0
FF80
ENDCHAR
STARTCHAR ACUTE
ENCODING -1
SWIDTH 480 0
DWIDTH 12 0
BBX 7 5 3 11
BITMAP
0E
1C
38
70
E0
ENDCHAR
STARTCHAR PILCROW
ENCODING -1
SWIDTH 480 0
DWIDTH 12 0
BBX 11 16 1 0
BITMAP
3FE0
7FE0
FEE0
FEE0
FEE0
FEE0
FEE0
FEE0
7EE0
3EE0
0EE0
0EE0
0EE0
0EE0
0EE0
0EE0
ENDCHAR
STARTCHAR CEDILLA
ENCODING -1
SWIDTH 480 0
DWIDTH 12 0
BBX 7 5 3 -4
BITMAP
10
1C
0E
FE
7C
ENDCHAR
STARTCHAR SUPERSCRIPT
ENCODING -1
SWIDTH 480 0
DWIDTH 12 0
BBX 7 14 3 6
BITMAP
06
0E
1E
3E
7E
EE
0E
0E
0E
0E
0E
0E
0E
0E
ENDCHAR
STARTCHAR VULGAR
ENCODING -1
SWIDTH 480 0
DWIDTH 12 0
BBX 12 24 0 -4
BITMAP
FE00
FF00
0380
0380
0380
0380
1F00
1F00
0380
0380
0380
0380
FF30
FE70
00F0
01F0
03B0
0730
0FF0
1FF0
0070
0070
0070
0070
ENDCHAR
STARTCHAR LATIN
ENCODING -1
SWIDTH 480 0
DWIDTH 12 0
BBX 11 20 1 0
BITMAP
7000
3800
1C00
0E00
0000
0000
3F80
7FC0
E0E0
E0E0
E0E0
E0E0
E0E0
E0E0
FFE0
FFE0
E0E0
E0E0
E0E0
E0E0
ENDCHAR
STARTCHAR LATIN
ENCODING -1
SWIDTH 480 0
DWIDTH 12 0
BBX 11 20 1 0
BITMAP
01C0
0380
0700
0E00
0000
0000
3F80
7FC0
E0E0
E0E0
E0E0
E0E0
E0E0
E0E0
FFE0
FFE0
E0E0
E0E0
E0E0
E0E0
ENDCHAR
STARTCHAR LATIN
ENCODING -1
SWIDTH 480 0
DWIDTH 12 0
BBX 11 20 1 0
BITMAP
0E00
1F00
3B80
71C0
0000
0000
3F80
7FC0
E0E0
E0E0
E0E0
E0E0
E0E0
E0E0
FFE0
FFE0
E0E0
E0E0
E0E0
E0E0
ENDCHAR
STARTCHAR LATIN
ENCODING -1
SWIDTH 480 0
DWIDTH 12 0
BBX 11 20 1 0
BITMAP
38E0
7EE0
EFC0
E380
0000
0000
3F80
7FC0
E0E0
E0E0
E0E0
E0E0
E0E0
E0E0
FFE0
FFE0
E0E0
E0E0
E0E0
E0E0
ENDCHAR
STARTCHAR LATIN
ENCODING -1
SWIDTH 480 0
DWIDTH 12 0
BBX 11 20 1 0
BITMAP
7000
3800
1C00
0E00
0000
0000
FFE0
FFE0
E000
E000
E000
E000
FE00
FE00
E000
E000
E000
E000
FFE0
FFE0
ENDCHAR
STARTCHAR LATIN
ENCODING -1
SWIDTH 480 0
DWIDTH 12 0
BBX 11 20 1 0
BITMAP
0E00
1F00
3B80
71C0
0000
0000
FFE0
FFE0
E000
E000
E000
E000
FE00
FE00
E000
E000
E000
E000
FFE0
FFE0
ENDCHAR
STARTCHAR LATIN
ENCODING -1
SWIDTH 480 0
DWIDTH 12 0
BBX 11 19 1 0
BITMAP
71C0
71C0
71C0
0000
0000
FFE0
FFE0
E000
E000
E000
E000
FE00
FE00
E000
E000
E000
E000
FFE0
FFE0
ENDCHAR
STARTCHAR LATIN
ENCODING -1
SWIDTH 480 0
DWIDTH 12 0
BBX 7 20 2 0
BITMAP
E0
70
38
1C
00
00
3E
3E
1C
1C
1C
1C
1C
1C
1C
1C
1C
1C
3E
3E
ENDCHAR
STARTCHAR LATIN
ENCODING -1
SWIDTH 480 0
DWIDTH 12 0
BBX 7 20 4 0
BITMAP
0E
1C
38
70
00
00
F8
F8
70
70
70
70
70
70
70
70
70
70
F8
F8
ENDCHAR
STARTCHAR LATIN
ENCODING -1
SWIDTH 480 0
DWIDTH 12 0
BBX 9 20 2 0
BITMAP
1C00
3E00
7700
E380
0000
0000
3E00
3E00
1C00
1C00
1C00
1C00
1C00
1C00
1C00
1C00
1C00
1C00
3E00
3E00
ENDCHAR
STARTCHAR LATIN
ENCODING -1
SWIDTH 480 0
DWIDTH 12 0
BBX 9 19 2 0
BITMAP
E380
E380
E380
0000
0000
3E00
3E00
1C00
1C00
1C00
1C00
1C00
1C00
1C00
1C00
1C00
1C00
3E00
3E00
ENDCHAR
STARTCHAR LATIN
ENCODING -1
SWIDTH 480 0
DWIDTH 12 0
BBX 12 14 0 0
BITMAP
7FC0
7FE0
7070
7070
7070
7070
FE70
FE70
7070
7070
7070
7070
7FE0
7FC0
ENDCHAR
STARTCHAR LATIN
ENCODING -1
SWIDTH 480 0
DWIDTH 12 0
BBX 11 20 1 0
BITMAP
7000
3800
1C00
0E00
0000
0000
3F80
7FC0
E0E0
E0E0
E0E0
E0E0
E0E0
E0E0
E0E0
E0E0
E0E0
E0E0
7FC0
3F80
ENDCHAR
STARTCHAR LATIN
ENCODING -1
SWIDTH 480 0
DWIDTH 12 0
BBX 11 20 1 0
BITMAP
01C0
0380
0700
0E00
0000
0000
3F80
7FC0
E0E0
E0E0
E0E0
E0E0
E0E0
E0E0
E0E0
E0E0
E0E0
E0E0
7FC0
3F80
ENDCHAR
STARTCHAR LATIN
ENCODING -1
SWIDTH 480 0
DWIDTH 12 0
BBX 11 20 1 0
BITMAP
0E00
1F00
3B80
71C0
0000
0000
3F80
7FC0
E0E0
E0E0
E0E0
E0E0
E0E0
E0E0
E0E0
E0E0
E0E0
E0E0
7FC0
3F80
ENDCHAR
STARTCHAR LATIN
ENCODING -1
SWIDTH 480 0
DWIDTH 12 0
BBX 11 20 1 0
BITMAP
38E0
7EE0
EFC0
E380
0000
0000
3F80
7FC0
E0E0
E0E0
E0E0
E0E0
E0E0
E0E0
E0E0
E0E0
E0E0
E0E0
7FC0
3F80
ENDCHAR
STARTCHAR MULTIPLICATION
ENCODING -1
SWIDTH 480 0
DWIDTH 12 0
BBX 11 10 1 2
BITMAP
60C0
F1E0
7BC0
3F80
1F00
1F00
3F80
7BC0
F1E0
60C0
ENDCHAR
STARTCHAR LATIN
ENCODING -1
SWIDTH 480 0
DWIDTH 12 0
BBX 11 14 1 0
BITMAP
3FE0
7FE0
E3E0
E3E0
E7E0
E7E0
EEE0
EEE0
FCE0
FCE0
F8E0
F8E0
FFC0
FF80
ENDCHAR
STARTCHAR LATIN
ENCODING -1
SWIDTH 480 0
DWIDTH 12 0
BBX 11 20 1 0
BITMAP
7000
3800
1C00
0E00
0000
0000
E0E0
E0E0
E0E0
E0E0
E0E0
E0E0
E0E0
E0E0
E0E0
E0E0
E0E0
E0E0
7FC0
3F80
ENDCHAR
STARTCHAR LATIN
ENCODING -1
SWIDTH 480 0
DWIDTH 12 0
BBX 11 20 1 0
BITMAP
01C0
0380
0700
0E00
0000
0000
E0E0
E0E0
E0E0
E0E0
E0E0
E0E0
E0E0
E0E0
E0E0
E0E0
E0E0
E0E0
7FC0
3F80
ENDCHAR
STARTCHAR LATIN
ENCODING -1
SWIDTH 480 0
DWIDTH 12 0
BBX 11 20 1 0
BITMAP
0E00
1F00
3B80
71C0
0000
0000
E0E0
E0E0
E0E0
E0E0
E0E0
E0E0
E0E0
E0E0
E0E0
E0E0
E0E0
E0E0
7FC0
3F80
ENDCHAR
STARTCHAR LATIN
ENCODING -1
SWIDTH 480 0
DWIDTH 12 0
BBX 11 20 1 0
BITMAP
01C0
0380
0700
0E00
0000
0000
E0E0
E0E0
E0E0
E0E0
71C0
3B80
1F00
0E00
0E00
0E00
0E00
0E00
0E00
0E00
ENDCHAR
STARTCHAR LATIN
ENCODING -1
SWIDTH 480 0
DWIDTH 12 0
BBX 11 14 1 0
BITMAP
E000
E000
FF80
FFC0
E0E0
E0E0
E0E0
E0E0
E0E0
E0E0
FFC0
FF80
E000
E000
ENDCHAR
STARTCHAR LATIN
ENCODING -1
SWIDTH 480 0
DWIDTH 12 0
BBX 11 16 1 0
BITMAP
38E0
7EE0
EFC0
E380
0000
0000
3F80
3FC0
00E0
00E0
3FE0
7FE0
E0E0
E0E0
7FE0
3FE0
ENDCHAR
STARTCHAR LATIN
ENCODING -1
SWIDTH 480 0
DWIDTH 12 0
BBX 11 18 1 0
BITMAP
39C0
1F80
0F00
0F00
1F80
39C0
01C0
00E0
3FE0
7FE0
E0E0
E0E0
E0E0
E0E0
E0E0
E0E0
7FC0
3F80
ENDCHAR
STARTCHAR LATIN
ENCODING -1
SWIDTH 480 0
DWIDTH 12 0
BBX 11 16 1 0
BITMAP
38E0
7EE0
EFC0
E380
0000
0000
3F80
7FC0
E0E0
E0E0
E0E0
E0E0
E0E0
E0E0
7FC0
3F80
ENDCHAR
STARTCHAR LATIN
ENCODING -1
SWIDTH 480 0
DWIDTH 12 0
BBX 11 10 1 0
BITMAP
3FE0
7FE0
E3E0
E7E0
EFE0
FEE0
FCE0
F8E0
FFC0
FF80
ENDCHAR
STARTCHAR LATIN
ENCODING -1
SWIDTH 480 0
DWIDTH 12 0
BBX 11 20 1 -4
BITMAP
01C0
0380
0700
0E00
0000
0000
E0E0
E0E0
E0E0
E0E0
E0E0
E0E0
E0E0
E0E0
7FE0
3FE0
00E0
00E0
1FC0
1F80
ENDCHAR
STARTCHAR LATIN
ENCODING -1
SWIDTH 480 0
DWIDTH 12 0
BBX 11 18 1 -4
BITMAP
E000
E000
E000
E000
FF80
FFC0
E0E0
E0E0
E0E0
E0E0
E0E0
E0E0
FFC0
FF80
E000
E000
E000
E000
ENDCHAR
STARTCHAR LATIN
ENCODING -1
SWIDTH 480 0
DWIDTH 12 0
BBX 11 19 1 0
BITMAP
7FC0
7FC0
7FC0
0000
0000
3F80
7FC0
E0E0
E0E0
E0E0
E0E0
E0E0
E0E0
FFE0
FFE0
E0E0
E0E0
E0E0
E0E0
ENDCHAR
STARTCHAR LATIN
ENCODING -1
SWIDTH 480 0
DWIDTH 12 0
BBX 11 15 1 0
BITMAP
7FC0
7FC0
7FC0
0000
0000
3F80
3FC0
00E0
00E0
3FE0
7FE0
E0E0
E0E0
7FE0
3FE0
ENDCHAR
STARTCHAR LATIN
ENCODING -1
SWIDTH 480 0
DWIDTH 12 0
BBX 11 19 1 0
BITMAP
E0E0
7FC0
3F80
0000
0000
3F80
7FC0
E0E0
E0E0
E0E0
E0E0
E0E0
E0E0
FFE0
FFE0
E0E0
E0E0
E0E0
E0E0
ENDCHAR
STARTCHAR LATIN
ENCODING -1
SWIDTH 480 0
DWIDTH 12 0
BBX 11 15 1 0
BITMAP
71C0
3F80
1F00
0000
0000
3F80
3FC0
00E0
00E0
3FE0
7FE0
E0E0
E0E0
7FE0
3FE0
ENDCHAR
STARTCHAR LATIN
ENCODING -1
SWIDTH 480 0
DWIDTH 12 0
BBX 11 18 1 -4
BITMAP
3F80
7FC0
E0E0
E0E0
E0E0
E0E0
E0E0
E0E0
FFE0
FFE0
E0E0
E0E0
E0E0
E0E0
01C0
01C0
00E0
0060
ENDCHAR
STARTCHAR LATIN
ENCODING -1
SWIDTH 480 0
DWIDTH 12 0
BBX 11 14 1 -4
BITMAP
3F80
3FC0
00E0
00E0
3FE0
7FE0
E0E0
E0E0
7FE0
3FE0
01C0
01C0
00E0
0060
ENDCHAR
STARTCHAR LATIN
ENCODING -1
SWIDTH 480 0
DWIDTH 12 0
BBX 11 20 1 0
BITMAP
01C0
0380
0700
0E00
0000
0000
3FE0
7FE0
E000
E000
E000
E000
E000
E000
E000
E000
E000
E000
7FE0
3FE0
ENDCHAR
STARTCHAR LATIN
ENCODING -1
SWIDTH 480 0
DWIDTH 12 0
BBX 11 16 1 0
BITMAP
01C0
0380
0700
0E00
0000
0000
3FE0
7FE0
E000
E000
E000
E000
E000
E000
7FE0
3FE0
ENDCHAR
STARTCHAR LATIN
ENCODING -1
SWIDTH 480 0
DWIDTH 12 0
BBX 11 20 1 0
BITMAP
0E00
1F00
3B80
71C0
0000
0000
3FE0
7FE0
E000
E000
E000
E000
E000
E000
E000
E000
E000
E000
7FE0
3FE0
ENDCHAR
STARTCHAR LATIN
ENCODING -1
SWIDTH 480 0
DWIDTH 12 0
BBX 11 17 1 0
BITMAP
0400
0E00
1F00
3B80
71C0
0000
0000
3FE0
7FE0
E000
E000
E000
E000
E000
E000
7FE0
3FE0
ENDCHAR
STARTCHAR LATIN
ENCODING -1
SWIDTH 480 0
DWIDTH 12 0
BBX 11 19 1 0
BITMAP
0E00
0E00
0E00
0000
0000
3FE0
7FE0
E000
E000
E000
E000
E000
E000
E000
E000
E000
E000
7FE0
3FE0
ENDCHAR
STARTCHAR LATIN
ENCODING -1
SWIDTH 480 0
DWIDTH 12 0
BBX 11 15 1 0
BITMAP
0E00
0E00
0E00
0000
0000
3FE0
7FE0
E000
E000
E000
E000
E000
E000
7FE0
3FE0
ENDCHAR
STARTCHAR LATIN
ENCODING -1
SWIDTH 480 0
DWIDTH 12 0
BBX 11 20 1 0
BITMAP
71C0
3B80
1F00
0E00
0400
0000
3FE0
7FE0
E000
E000
E000
E000
E000
E000
E000
E000
E000
E000
7FE0
3FE0
ENDCHAR
STARTCHAR LATIN
ENCODING -1
SWIDTH 480 0
DWIDTH 12 0
BBX 11 16 1 0
BITMAP
71C0
3B80
1F00
0E00
0400
0000
3FE0
7FE0
E000
E000
E000
E000
E000
E000
7FE0
3FE0
ENDCHAR
STARTCHAR LATIN
ENCODING -1
SWIDTH 480 0
DWIDTH 12 0
BBX 11 20 1 0
BITMAP
71C0
3B80
1F00
0E00
0400
0000
FF80
FFC0
E0E0
E0E0
E0E0
E0E0
E0E0
E0E0
E0E0
E0E0
E0E0
E0E0
FFC0
FF80
ENDCHAR
STARTCHAR LATIN
ENCODING -1
SWIDTH 480 0
DWIDTH 12 0
BBX 12 20 0 0
BITMAP
0030
0030
0070
00E0
0000
00E0
00E0
00E0
00E0
00E0
3FE0
7FE0
E0E0
E0E0
E0E0
E0E0
E0E0
E0E0
7FE0
3FE0
ENDCHAR
STARTCHAR LATIN
ENCODING -1
SWIDTH 480 0
DWIDTH 12 0
BBX 12 14 0 0
BITMAP
7FC0
7FE0
7070
7070
7070
7070
FE70
FE70
7070
7070
7070
7070
7FE0
7FC0
ENDCHAR
STARTCHAR LATIN
ENCODING -1
SWIDTH 480 0
DWIDTH 12 0
BBX 12 16 0 0
BITMAP
00E0
00E0
07F0
07F0
00E0
00E0
3FE0
7FE0
E0E0
E0E0
E0E0
E0E0
E0E0
E0E0
7FE0
3FE0
ENDCHAR
STARTCHAR LATIN
ENCODING -1
SWIDTH 480 0
DWIDTH 12 0
BBX 11 19 1 0
BITMAP
7FC0
7FC0
7FC0
0000
0000
FFE0
FFE0
E000
E000
E000
E000
FE00
FE00
E000
E000
E000
E000
FFE0
FFE0
ENDCHAR
STARTCHAR LATIN
ENCODING -1
SWIDTH 480 0
DWIDTH 12 0
BBX 11 15 1 0
BITMAP
7FC0
7FC0
7FC0
0000
0000
3F80
7FC0
E0E0
E0E0
FFE0
FFE0
E000
E000
7F80
3F80
ENDCHAR
STARTCHAR LATIN
ENCODING -1
SWIDTH 480 0
DWIDTH 12 0
BBX 11 19 1 0
BITMAP
0E00
0E00
0E00
0000
0000
FFE0
FFE0
E000
E000
E000
E000
FE00
FE00
E000
E000
E000
E000
FFE0
FFE0
ENDCHAR
STARTCHAR LATIN
ENCODING -1
SWIDTH 480 0
DWIDTH 12 0
BBX 11 15 1 0
BITMAP
0E00
0E00
0E00
0000
0000
3F80
7FC0
E0E0
E0E0
FFE0
FFE0
E000
E000
7F80
3F80
ENDCHAR
STARTCHAR LATIN
ENCODING -1
SWIDTH 480 0
DWIDTH 12 0
BBX 11 18 1 -4
BITMAP
FFE0
FFE0
E000
E000
E000
E000
FE00
FE00
E000
E000
E000
E000
FFE0
FFE0
01C0
01C0
00E0
0060
ENDCHAR
STARTCHAR LATIN
ENCODING -1
SWIDTH 480 0
DWIDTH 12 0
BBX 11 14 1 -4
BITMAP
3F80
7FC0
E0E0
E0E0
FFE0
FFE0
E000
E000
7F80
3F80
0380
0380
01E0
00E0
ENDCHAR
STARTCHAR LATIN
ENCODING -1
SWIDTH 480 0
DWIDTH 12 0
BBX 11 20 1 0
BITMAP
71C0
3B80
1F00
0E00
0400
0000
FFE0
FFE0
E000
E000
E000
E000
FE00
FE00
E000
E000
E000
E000
FFE0
FFE0
ENDCHAR
STARTCHAR LATIN
ENCODING -1
SWIDTH 480 0
DWIDTH 12 0
BBX 11 16 1 0
BITMAP
71C0
3B80
1F00
0E00
0400
0000
3F80
7FC0
E0E0
E0E0
FFE0
FFE0
E000
E000
7F80
3F80
ENDCHAR
STARTCHAR LATIN
ENCODING -1
SWIDTH 480 0
DWIDTH 12 0
BBX 11 20 1 0
BITMAP
0E00
1F00
3B80
71C0
0000
0000
3FE0
7FE0
E000
E000
E000
E000
E3E0
E3E0
E0E0
E0E0
E0E0
E0E0
7FE0
3FE0
ENDCHAR
STARTCHAR LATIN
ENCODING -1
SWIDTH 480 0
DWIDTH 12 0
BBX 11 21 1 -4
BITMAP
0400
0E00
1F00
3B80
71C0
0000
0000
3FE0
7FE0
E0E0
E0E0
E0E0
E0E0
E0E0
E0E0
7FE0
3FE0
00E0
00E0
1FC0
1F80
ENDCHAR
STARTCHAR LATIN
ENCODING -1
SWIDTH 480 0
DWIDTH 12 0
BBX 11 19 1 0
BITMAP
E0E0
7FC0
3F80
0000
0000
3FE0
7FE0
E000
E000
E000
E000
E3E0
E3E0
E0E0
E0E0
E0E0
E0E0
7FE0
3FE0
ENDCHAR
STARTCHAR LATIN
ENCODING -1
SWIDTH 480 0
DWIDTH 12 0
BBX 11 19 1 -4
BITMAP
E0E0
7FC0
3F80
0000
0000
3FE0
7FE0
E0E0
E0E0
E0E0
E0E0
E0E0
E0E0
7FE0
3FE0
00E0
00E0
1FC0
1F80
ENDCHAR
STARTCHAR LATIN
ENCODING -1
SWIDTH 480 0
DWIDTH 12 0
BBX 11 19 1 0
BITMAP
0E00
0E00
0E00
0000
0000
3FE0
7FE0
E000
E000
E000
E000
E3E0
E3E0
E0E0
E0E0
E0E0
E0E0
7FE0
3FE0
ENDCHAR
STARTCHAR LATIN
ENCODING -1
SWIDTH 480 0
DWIDTH 12 0
BBX 11 19 1 -4
BITMAP
0E00
0E00
0E00
0000
0000
3FE0
7FE0
E0E0
E0E0
E0E0
E0E0
E0E0
E0E0
7FE0
3FE0
00E0
00E0
1FC0
1F80
ENDCHAR
STARTCHAR LATIN
ENCODING -1
SWIDTH 480 0
DWIDTH 12 0
BBX 11 18 1 -4
BITMAP
3FE0
7FE0
E000
E000
E000
E000
E3E0
E3E0
E0E0
E0E0
E0E0
E0E0
7FE0
3FE0
0700
0380
3F80
1F00
ENDCHAR
STARTCHAR LATIN
ENCODING -1
SWIDTH 480 0
DWIDTH 12 0
BBX 11 20 1 -4
BITMAP
0380
0700
0E00
0E00
0E00
0000
3FE0
7FE0
E0E0
E0E0
E0E0
E0E0
E0E0
E0E0
7FE0
3FE0
00E0
00E0
1FC0
1F80
ENDCHAR
STARTCHAR LATIN
ENCODING -1
SWIDTH 480 0
DWIDTH 12 0
BBX 11 20 1 0
BITMAP
0E00
1F00
3B80
71C0
0000
0000
E0E0
E0E0
E0E0
E0E0
E0E0
E0E0
FFE0
FFE0
E0E0
E0E0
E0E0
E0E0
E0E0
E0E0
ENDCHAR
STARTCHAR LATIN
ENCODING -1
SWIDTH 480 0
DWIDTH 12 0
BBX 11 20 1 0
BITMAP
0E00
1F00
3B80
71C0
E000
E000
E000
E000
E000
E000
FF80
FFC0
E0E0
E0E0
E0E0
E0E0
E0E0
E0E0
E0E0
E0E0
ENDCHAR
STARTCHAR LATIN
ENCODING -1
SWIDTH 480 0
DWIDTH 12 0
BBX 11 14 1 0
BITMAP
E0E0
E0E0
FFE0
FFE0
E0E0
E0E0
FFE0
FFE0
E0E0
E0E0
E0E0
E0E0
E0E0
E0E0
ENDCHAR
STARTCHAR LATIN
ENCODING -1
SWIDTH 480 0
DWIDTH 12 0
BBX 12 16 0 0
BITMAP
7000
7000
FE00
FE00
7000
7000
7FC0
7FE0
7070
7070
7070
7070
7070
7070
7070
7070
ENDCHAR
STARTCHAR LATIN
ENCODING -1
SWIDTH 480 0
DWIDTH 12 0
BBX 11 20 1 0
BITMAP
38E0
7EE0
EFC0
E380
0000
0000
1F00
1F00
0E00
0E00
0E00
0E00
0E00
0E00
0E00
0E00
0E00
0E00
1F00
1F00
ENDCHAR
STARTCHAR LATIN
ENCODING -1
SWIDTH 480 0
DWIDTH 12 0
BBX 11 16 1 0
BITMAP
38E0
7EE0
EFC0
E380
0000
0000
1E00
1E00
0E00
0E00
0E00
0E00
0E00
0E00
0E00
0E00
ENDCHAR
STARTCHAR LATIN
ENCODING -1
SWIDTH 480 0
DWIDTH 12 0
BBX 7 19 3 0
BITMAP
FE
FE
FE
00
00
7C
7C
38
38
38
38
38
38
38
38
38
38
7C
7C
ENDCHAR
STARTCHAR LATIN
ENCODING -1
SWIDTH 480 0
DWIDTH 12 0
BBX 5 15 4 0
BITMAP
F8
F8
F8
00
00
F0
F0
70
70
70
70
70
70
70
70
ENDCHAR
STARTCHAR LATIN
ENCODING -1
SWIDTH 480 0
DWIDTH 12 0
BBX 6 18 4 -4
BITMAP
F8
F8
70
70
70
70
70
70
70
70
70
70
F8
F8
70
70
3C
1C
ENDCHAR
STARTCHAR LATIN
ENCODING -1
SWIDTH 480 0
DWIDTH 12 0
BBX 6 19 4 -4
BITMAP
70
70
70
00
00
F0
F0
70
70
70
70
70
70
70
70
70
70
3C
1C
ENDCHAR
STARTCHAR LATIN
ENCODING -1
SWIDTH 480 0
DWIDTH 12 0
BBX 5 19 4 0
BITMAP
70
70
70
00
00
F8
F8
70
70
70
70
70
70
70
70
70
70
F8
F8
ENDCHAR
STARTCHAR LATIN
ENCODING -1
SWIDTH 480 0
DWIDTH 12 0
BBX 4 10 4 0
BITMAP
F0
F0
70
70
70
70
70
70
70
70
ENDCHAR
STARTCHAR LATIN
ENCODING -1
SWIDTH 480 0
DWIDTH 12 0
BBX 11 20 1 0
BITMAP
0700
0F80
1DC0
38E0
0000
0000
00E0
00E0
00E0
00E0
00E0
00E0
00E0
00E0
00E0
00E0
00E0
E0E0
7FC0
3F80
ENDCHAR
STARTCHAR LATIN
ENCODING -1
SWIDTH 480 0
DWIDTH 12 0
BBX 9 21 2 -4
BITMAP
0800
1C00
3E00
7700
E380
0000
0000
3C00
3C00
1C00
1C00
1C00
1C00
1C00
1C00
1C00
1C00
1C00
1C00
3800
7000
ENDCHAR
STARTCHAR LATIN
ENCODING -1
SWIDTH 480 0
DWIDTH 12 0
BBX 11 18 1 -4
BITMAP
E0E0
E1C0
E380
E700
EE00
FC00
F800
F800
FC00
EE00
E700
E380
E1C0
EEE0
0700
0380
3F80
1F00
ENDCHAR
STARTCHAR LATIN
ENCODING -1
SWIDTH 480 0
DWIDTH 12 0
BBX 9 20 2 -4
BITMAP
E000
E000
E000
E000
E000
E000
E380
E700
EE00
FC00
F800
F800
FC00
EE00
E700
FF80
0E00
0700
7F00
3E00
ENDCHAR
STARTCHAR LATIN
ENCODING -1
SWIDTH 480 0
DWIDTH 12 0
BBX 9 10 2 0
BITMAP
E380
E700
EE00
FC00
F800
F800
FC00
EE00
E700
E380
ENDCHAR
STARTCHAR LATIN
ENCODING -1
SWIDTH 480 0
DWIDTH 12 0
BBX 11 20 1 0
BITMAP
1C00
3800
7000
E000
0000
0000
E000
E000
E000
E000
E000
E000
E000
E000
E000
E000
E000
E000
FFE0
FFE0
ENDCHAR
STARTCHAR LATIN
ENCODING -1
SWIDTH 480 0
DWIDTH 12 0
BBX 7 20 3 0
BITMAP
1C
38
70
E0
00
E0
E0
E0
E0
E0
E0
E0
E0
E0
E0
E0
E0
E0
7E
3E
ENDCHAR
STARTCHAR LATIN
ENCODING -1
SWIDTH 480 0
DWIDTH 12 0
BBX 11 18 1 -4
BITMAP
E000
E000
E000
E000
E000
E000
E000
E000
E000
E000
E000
E000
FFE0
FFE0
0700
0380
3F80
1F00
ENDCHAR
STARTCHAR LATIN
ENCODING -1
SWIDTH 480 0
DWIDTH 12 0
BBX 7 20 3 -4
BITMAP
E0
E0
E0
E0
E0
E0
E0
E0
E0
E0
E0
E0
E0
E0
7E
3E
1C
0E
FE
7C
ENDCHAR
STARTCHAR LATIN
ENCODING -1
SWIDTH 480 0
DWIDTH 12 0
BBX 11 14 1 0
BITMAP
E380
E380
E700
EE00
E000
E000
E000
E000
E000
E000
E000
E000
FFE0
FFE0
ENDCHAR
STARTCHAR LATIN
ENCODING -1
SWIDTH 480 0
DWIDTH 12 0
BBX 8 17 3 0
BITMAP
07
E7
E7
EE
FC
E0
E0
E0
E0
E0
E0
E0
E0
E0
E0
7E
3E
ENDCHAR
STARTCHAR LATIN
ENCODING -1
SWIDTH 480 0
DWIDTH 12 0
BBX 12 14 0 0
BITMAP
3800
3800
39C0
3B80
3F00
3E00
3C00
3800
7800
F800
3800
3800
3FF0
3FF0
ENDCHAR
STARTCHAR LATIN
ENCODING -1
SWIDTH 480 0
DWIDTH 12 0
BBX 9 16 1 0
BITMAP
3800
3800
3800
3800
3800
3800
3E00
3C00
7800
F800
3800
3800
3800
3800
1F80
0F80
ENDCHAR
STARTCHAR LATIN
ENCODING -1
SWIDTH 480 0
DWIDTH 12 0
BBX 11 20 1 0
BITMAP
01C0
0380
0700
0E00
0000
0000
E0E0
E0E0
E0E0
F0E0
F8E0
FCE0
EEE0
E7E0
E3E0
E1E0
E0E0
E0E0
E0E0
E0E0
ENDCHAR
STARTCHAR LATIN
ENCODING -1
SWIDTH 480 0
DWIDTH 12 0
BBX 11 16 1 0
BITMAP
01C0
0380
0700
0E00
0000
0000
FF80
FFC0
E0E0
E0E0
E0E0
E0E0
E0E0
E0E0
E0E0
E0E0
ENDCHAR
STARTCHAR LATIN
ENCODING -1
SWIDTH 480 0
DWIDTH 12 0
BBX 11 18 1 -4
BITMAP
E0E0
E0E0
E0E0
F0E0
F8E0
FCE0
EEE0
E7E0
E3E0
E1E0
E0E0
E0E0
E0E0
EEE0
0700
0380
3F80
1F00
ENDCHAR
STARTCHAR LATIN
ENCODING -1
SWIDTH 480 0
DWIDTH 12 0
BBX 11 14 1 -4
BITMAP
FF80
FFC0
E0E0
E0E0
E0E0
E0E0
E0E0
E0E0
E0E0
EEE0
0700
0380
3F80
1F00
ENDCHAR
STARTCHAR LATIN
ENCODING -1
SWIDTH 480 0
DWIDTH 12 0
BBX 11 20 1 0
BITMAP
71C0
3B80
1F00
0E00
0400
0000
E0E0
E0E0
E0E0
F0E0
F8E0
FCE0
EEE0
E7E0
E3E0
E1E0
E0E0
E0E0
E0E0
E0E0
ENDCHAR
STARTCHAR LATIN
ENCODING -1
SWIDTH 480 0
DWIDTH 12 0
BBX 11 16 1 0
BITMAP
71C0
3B80
1F00
0E00
0400
0000
FF80
FFC0
E0E0
E0E0
E0E0
E0E0
E0E0
E0E0
E0E0
E0E0
ENDCHAR
STARTCHAR LATIN
ENCODING -1
SWIDTH 480 0
DWIDTH 12 0
BBX 11 18 1 -4
BITMAP
E0E0
E0E0
E0E0
F0E0
F8E0
FCE0
EEE0
E7E0
E3E0
E1E0
E0E0
E0E0
E0E0
E0E0
00E0
00E0
03C0
0380
ENDCHAR
STARTCHAR LATIN
ENCODING -1
SWIDTH 480 0
DWIDTH 12 0
BBX 11 14 1 -4
BITMAP
FF80
FFC0
E0E0
E0E0
E0E0
E0E0
E0E0
E0E0
E0E0
E0E0
00E0
00E0
03C0
0380
ENDCHAR
STARTCHAR LATIN
ENCODING -1
SWIDTH 480 0
DWIDTH 12 0
BBX 11 19 1 0
BITMAP
7FC0
7FC0
7FC0
0000
0000
3F80
7FC0
E0E0
E0E0
E0E0
E0E0
E0E0
E0E0
E0E0
E0E0
E0E0
E0E0
7FC0
3F80
ENDCHAR
STARTCHAR LATIN
ENCODING -1
SWIDTH 480 0
DWIDTH 12 0
BBX 11 15 1 0
BITMAP
7FC0
7FC0
7FC0
0000
0000
3F80
7FC0
E0E0
E0E0
E0E0
E0E0
E0E0
E0E0
7FC0
3F80
ENDCHAR
STARTCHAR LATIN
ENCODING -1
SWIDTH 480 0
DWIDTH 12 0
BBX 11 20 1 0
BITMAP
0EE0
1DC0
3B80
7700
0000
0000
3F80
7FC0
E0E0
E0E0
E0E0
E0E0
E0E0
E0E0
E0E0
E0E0
E0E0
E0E0
7FC0
3F80
ENDCHAR
STARTCHAR LATIN
ENCODING -1
SWIDTH 480 0
DWIDTH 12 0
BBX 11 16 1 0
BITMAP
0EE0
1DC0
3B80
7700
0000
0000
3F80
7FC0
E0E0
E0E0
E0E0
E0E0
E0E0
E0E0
7FC0
3F80
ENDCHAR
STARTCHAR LATIN
ENCODING -1
SWIDTH 480 0
DWIDTH 12 0
BBX 12 14 0 0
BITMAP
3DF0
7FF0
E700
E700
E700
E700
E7E0
E7E0
E700
E700
E700
E700
7FF0
3DF0
ENDCHAR
STARTCHAR LATIN
ENCODING -1
SWIDTH 480 0
DWIDTH 12 0
BBX 12 10 0 0
BITMAP
3DC0
7FE0
E670
E670
E7F0
E7F0
E600
E600
7FF0
3DF0
ENDCHAR
STARTCHAR LATIN
ENCODING -1
SWIDTH 480 0
DWIDTH 12 0
BBX 11 20 1 0
BITMAP
01C0
0380
0700
0E00
0000
0000
FF80
FFC0
E0E0
E0E0
E0E0
E0E0
E0E0
E0E0
FFC0
FF80
E700
E380
E1C0
E0E0
ENDCHAR
STARTCHAR LATIN
ENCODING -1
SWIDTH 480 0
DWIDTH 12 0
BBX 11 16 1 0
BITMAP
01C0
0380
0700
0E00
0000
0000
EFE0
FFE0
F800
F000
E000
E000
E000
E000
E000
E000
ENDCHAR
STARTCHAR LATIN
ENCODING -1
SWIDTH 480 0
DWIDTH 12 0
BBX 11 18 1 -4
BITMAP
FF80
FFC0
E0E0
E0E0
E0E0
E0E0
E0E0
E0E0
FFC0
FF80
E700
E380
E1C0
EEE0
0700
0380
3F80
1F00
ENDCHAR
STARTCHAR LATIN
ENCODING -1
SWIDTH 480 0
DWIDTH 12 0
BBX 12 14 0 -4
BITMAP
3BF0
3FF0
3E00
3C00
3800
3800
3800
3800
3800
3800
1C00
0E00
FE00
7C00
ENDCHAR
STARTCHAR LATIN
ENCODING -1
SWIDTH 480 0
DWIDTH 12 0
BBX 11 20 1 0
BITMAP
71C0
3B80
1F00
0E00
0400
0000
FF80
FFC0
E0E0
E0E0
E0E0
E0E0
E0E0
E0E0
FFC0
FF80
E700
E380
E1C0
E0E0
ENDCHAR
STARTCHAR LATIN
ENCODING -1
SWIDTH 480 0
DWIDTH 12 0
BBX 11 16 1 0
BITMAP
71C0
3B80
1F00
0E00
0400
0000
EFE0
FFE0
F800
F000
E000
E000
E000
E000
E000
E000
ENDCHAR
STARTCHAR LATIN
ENCODING -1
SWIDTH 480 0
DWIDTH 12 0
BBX 11 20 1 0
BITMAP
01C0
0380
0700
0E00
0000
0000
3FE0
7FE0
E000
E000
E000
E000
7F80
3FC0
00E0
00E0
00E0
00E0
FFC0
FF80
ENDCHAR
STARTCHAR LATIN
ENCODING -1
SWIDTH 480 0
DWIDTH 12 0
BBX 11 16 1 0
BITMAP
01C0
0380
0700
0E00
0000
0000
3FE0
7FE0
E000
E000
7F80
3FC0
00E0
00E0
FFC0
FF80
ENDCHAR
STARTCHAR LATIN
ENCODING -1
SWIDTH 480 0
DWIDTH 12 0
BBX 11 20 1 0
BITMAP
0E00
1F00
3B80
71C0
0000
0000
3FE0
7FE0
E000
E000
E000
E000
7F80
3FC0
00E0
00E0
00E0
00E0
FFC0
FF80
ENDCHAR
STARTCHAR LATIN
ENCODING -1
SWIDTH 480 0
DWIDTH 12 0
BBX 11 17 1 0
BITMAP
0400
0E00
1F00
3B80
71C0
0000
0000
3FE0
7FE0
E000
E000
7F80
3FC0
00E0
00E0
FFC0
FF80
ENDCHAR
STARTCHAR LATIN
ENCODING -1
SWIDTH 480 0
DWIDTH 12 0
BBX 11 18 1 -4
BITMAP
3FE0
7FE0
E000
E000
E000
E000
7F80
3FC0
00E0
00E0
00E0
00E0
FFC0
FF80
0700
0380
3F80
1F00
ENDCHAR
STARTCHAR LATIN
ENCODING -1
SWIDTH 480 0
DWIDTH 12 0
BBX 11 14 1 -4
BITMAP
3FE0
7FE0
E000
E000
7F80
3FC0
00E0
00E0
FFC0
FF80
0700
0380
3F80
1F00
ENDCHAR
STARTCHAR LATIN
ENCODING -1
SWIDTH 480 0
DWIDTH 12 0
BBX 11 20 1 0
BITMAP
71C0
3B80
1F00
0E00
0400
0000
3FE0
7FE0
E000
E000
E000
E000
7F80
3FC0
00E0
00E0
00E0
00E0
FFC0
FF80
ENDCHAR
STARTCHAR LATIN
ENCODING -1
SWIDTH 480 0
DWIDTH 12 0
BBX 11 16 1 0
BITMAP
71C0
3B80
1F00
0E00
0400
0000
3FE0
7FE0
E000
E000
7F80
3FC0
00E0
00E0
FFC0
FF80
ENDCHAR
STARTCHAR LATIN
ENCODING -1
SWIDTH 480 0
DWIDTH 12 0
BBX 11 18 1 -4
BITMAP
FFE0
FFE0
0E00
0E00
0E00
0E00
0E00
0E00
0E00
0E00
0E00
0E00
0E00
0E00
0700
0380
3F80
1F00
ENDCHAR
STARTCHAR LATIN
ENCODING -1
SWIDTH 480 0
DWIDTH 12 0
BBX 9 20 2 -4
BITMAP
3800
3800
3800
3800
3800
3800
FE00
FE00
3800
3800
3800
3800
3800
3800
1F80
0F80
0E00
0700
7F00
3E00
ENDCHAR
STARTCHAR LATIN
ENCODING -1
SWIDTH 480 0
DWIDTH 12 0
BBX 11 20 1 0
BITMAP
71C0
3B80
1F00
0E00
0400
0000
FFE0
FFE0
0E00
0E00
0E00
0E00
0E00
0E00
0E00
0E00
0E00
0E00
0E00
0E00
ENDCHAR
STARTCHAR LATIN
ENCODING -1
SWIDTH 480 0
DWIDTH 12 0
BBX 10 19 2 0
BITMAP
01C0
01C0
01C0
3B80
3F00
3800
3800
3800
3800
FE00
FE00
3800
3800
3800
3800
3800
3800
1F80
0F80
ENDCHAR
STARTCHAR LATIN
ENCODING -1
SWIDTH 480 0
DWIDTH 12 0
BBX 11 14 1 0
BITMAP
FFE0
FFE0
0E00
0E00
0E00
0E00
3F80
3F80
0E00
0E00
0E00
0E00
0E00
0E00
ENDCHAR
STARTCHAR LATIN
ENCODING -1
SWIDTH 480 0
DWIDTH 12 0
BBX 9 16 2 0
BITMAP
3800
3800
3800
3800
FE00
FE00
3800
3800
FE00
FE00
3800
3800
3800
3800
1F80
0F80
ENDCHAR
STARTCHAR LATIN
ENCODING -1
SWIDTH 480 0
DWIDTH 12 0
BBX 11 20 1 0
BITMAP
38E0
7EE0
EFC0
E380
0000
0000
E0E0
E0E0
E0E0
E0E0
E0E0
E0E0
E0E0
E0E0
E0E0
E0E0
E0E0
E0E0
7FC0
3F80
ENDCHAR
STARTCHAR LATIN
ENCODING -1
SWIDTH 480 0
DWIDTH 12 0
BBX 11 16 1 0
BITMAP
38E0
7EE0
EFC0
E380
0000
0000
E0E0
E0E0
E0E0
E0E0
E0E0
E0E0
E0E0
E0E0
7FE0
3FE0
ENDCHAR
STARTCHAR LATIN
ENCODING -1
SWIDTH 480 0
DWIDTH 12 0
BBX 11 19 1 0
BITMAP
7FC0
7FC0
7FC0
0000
0000
E0E0
E0E0
E0E0
E0E0
E0E0
E0E0
E0E0
E0E0
E0E0
E0E0
E0E0
E0E0
7FC0
3F80
ENDCHAR
STARTCHAR LATIN
ENCODING -1
SWIDTH 480 0
DWIDTH 12 0
BBX 11 15 1 0
BITMAP
7FC0
7FC0
7FC0
0000
0000
E0E0
E0E0
E0E0
E0E0
E0E0
E0E0
E0E0
E0E0
7FE0
3FE0
ENDCHAR
STARTCHAR LATIN
ENCODING -1
SWIDTH 480 0
DWIDTH 12 0
BBX 11 19 1 0
BITMAP
E0E0
7FC0
3F80
0000
0000
E0E0
E0E0
E0E0
E0E0
E0E0
E0E0
E0E0
E0E0
E0E0
E0E0
E0E0
E0E0
7FC0
3F80
ENDCHAR
STARTCHAR LATIN
ENCODING -1
SWIDTH 480 0
DWIDTH 12 0
BBX 11 15 1 0
BITMAP
E0E0
7FC0
3F80
0000
0000
E0E0
E0E0
E0E0
E0E0
E0E0
E0E0
E0E0
E0E0
7FE0
3FE0
ENDCHAR
STARTCHAR LATIN
ENCODING -1
SWIDTH 480 0
DWIDTH 12 0
BBX 11 20 1 0
BITMAP
0E00
1F00
3B80
1F00
0E00
0000
E0E0
E0E0
E0E0
E0E0
E0E0
E0E0
E0E0
E0E0
E0E0
E0E0
E0E0
E0E0
7FC0
3F80
ENDCHAR
STARTCHAR LATIN
ENCODING -1
SWIDTH 480 0
DWIDTH 12 0
BBX 11 18 1 0
BITMAP
0E00
1F00
3B80
3B80
1F00
0E00
0000
0000
E0E0
E0E0
E0E0
E0E0
E0E0
E0E0
E0E0
E0E0
7FE0
3FE0
ENDCHAR
STARTCHAR LATIN
ENCODING -1
SWIDTH 480 0
DWIDTH 12 0
BBX 11 20 1 0
BITMAP
0EE0
1DC0
3B80
7700
0000
0000
E0E0
E0E0
E0E0
E0E0
E0E0
E0E0
E0E0
E0E0
E0E0
E0E0
E0E0
E0E0
7FC0
3F80
ENDCHAR
STARTCHAR LATIN
ENCODING -1
SWIDTH 480 0
DWIDTH 12 0
BBX 11 16 1 0
BITMAP
0EE0
1DC0
3B80
7700
0000
0000
E0E0
E0E0
E0E0
E0E0
E0E0
E0E0
E0E0
E0E0
7FE0
3FE0
ENDCHAR
STARTCHAR LATIN
ENCODING -1
SWIDTH 480 0
DWIDTH 12 0
BBX 11 18 1 -4
BITMAP
E0E0
E0E0
E0E0
E0E0
E0E0
E0E0
E0E0
E0E0
E0E0
E0E0
E0E0
E0E0
7FC0
3F80
0E00
0E00
0780
0380
ENDCHAR
STARTCHAR LATIN
ENCODING -1
SWIDTH 480 0
DWIDTH 12 0
BBX 11 14 1 -4
BITMAP
E0E0
E0E0
E0E0
E0E0
E0E0
E0E0
E0E0
E0E0
7FE0
3FE0
0E00
0E00
0780
0380
ENDCHAR
STARTCHAR LATIN
ENCODING -1
SWIDTH 480 0
DWIDTH 12 0
BBX 11 20 1 0
BITMAP
0E00
1F00
3B80
71C0
0000
0000
E0E0
E0E0
E0E0
E0E0
E0E0
E0E0
E0E0
E4E0
EEE0
FFE0
FFE0
FBE0
E0E0
C060
ENDCHAR
STARTCHAR LATIN
ENCODING -1
SWIDTH 480 0
DWIDTH 12 0
BBX 11 17 1 0
BITMAP
0400
0E00
1F00
3B80
71C0
0000
0000
E0E0
E0E0
E0E0
E4E0
EEE0
FFE0
FFE0
FBE0
E0E0
C060
ENDCHAR
STARTCHAR LATIN
ENCODING -1
SWIDTH 480 0
DWIDTH 12 0
BBX 11 20 1 0
BITMAP
0E00
1F00
3B80
71C0
0000
0000
E0E0
E0E0
E0E0
E0E0
71C0
3B80
1F00
0E00
0E00
0E00
0E00
0E00
0E00
0E00
ENDCHAR
STARTCHAR LATIN
ENCODING -1
SWIDTH 480 0
DWIDTH 12 0
BBX 11 21 1 -4
BITMAP
0400
0E00
1F00
3B80
71C0
0000
0000
E0E0
E0E0
E0E0
E0E0
E0E0
E0E0
E0E0
E0E0
7FE0
3FE0
00E0
00E0
1FC0
1F80
ENDCHAR
STARTCHAR LATIN
ENCODING -1
SWIDTH 480 0
DWIDTH 12 0
BBX 11 19 1 0
BITMAP
71C0
71C0
71C0
0000
0000
E0E0
E0E0
E0E0
E0E0
71C0
3B80
1F00
0E00
0E00
0E00
0E00
0E00
0E00
0E00
ENDCHAR
STARTCHAR LATIN
ENCODING -1
SWIDTH 480 0
DWIDTH 12 0
BBX 11 20 1 0
BITMAP
01C0
0380
0700
0E00
0000
0000
FFE0
FFE0
00E0
01C0
0380
0700
0E00
1C00
3800
7000
E000
E000
FFE0
FFE0
ENDCHAR
STARTCHAR LATIN
ENCODING -1
SWIDTH 480 0
DWIDTH 12 0
BBX 11 16 1 0
BITMAP
01C0
0380
0700
0E00
0000
0000
FFE0
FFC0
0380
0700
0E00
1C00
3800
7000
FFE0
FFE0
ENDCHAR
STARTCHAR LATIN
ENCODING -1
SWIDTH 480 0
DWIDTH 12 0
BBX 11 19 1 0
BITMAP
0E00
0E00
0E00
0000
0000
FFE0
FFE0
00E0
01C0
0380
0700
0E00
1C00
3800
7000
E000
E000
FFE0
FFE0
ENDCHAR
STARTCHAR LATIN
ENCODING -1
SWIDTH 480 0
DWIDTH 12 0
BBX 11 15 1 0
BITMAP
0E00
0E00
0E00
0000
0000
FFE0
FFC0
0380
0700
0E00
1C00
3800
7000
FFE0
FFE0
ENDCHAR
STARTCHAR LATIN
ENCODING -1
SWIDTH 480 0
DWIDTH 12 0
BBX 11 20 1 0
BITMAP
71C0
3B80
1F00
0E00
0400
0000
FFE0
FFE0
00E0
01C0
0380
0700
0E00
1C00
3800
7000
E000
E000
FFE0
FFE0
ENDCHAR
STARTCHAR LATIN
ENCODING -1
SWIDTH 480 0
DWIDTH 12 0
BBX 11 16 1 0
BITMAP
71C0
3B80
1F00
0E00
0400
0000
FFE0
FFC0
0380
0700
0E00
1C00
3800
7000
FFE0
FFE0
ENDCHAR
STARTCHAR LATIN
ENCODING -1
SWIDTH 480 0
DWIDTH 12 0
BBX 11 18 1 -4
BITMAP
3FE0
7FE0
E000
E000
E000
E000
7F80
3FC0
00E0
00E0
00E0
00E0
FFC0
FF80
0E00
0E00
1C00
3800
ENDCHAR
STARTCHAR LATIN
ENCODING -1
SWIDTH 480 0
DWIDTH 12 0
BBX 11 14 1 -4
BITMAP
3FE0
7FE0
E000
E000
7F80
3FC0
00E0
00E0
FFC0
FF80
0E00
0E00
1C00
3800
ENDCHAR
STARTCHAR LATIN
ENCODING -1
SWIDTH 480 0
DWIDTH 12 0
BBX 11 18 1 -4
BITMAP
FFE0
FFE0
0E00
0E00
0E00
0E00
0E00
0E00
0E00
0E00
0E00
0E00
0E00
0E00
0E00
0E00
1C00
3800
ENDCHAR
STARTCHAR LATIN
ENCODING -1
SWIDTH 480 0
DWIDTH 12 0
BBX 9 20 2 -4
BITMAP
3800
3800
3800
3800
3800
3800
FE00
FE00
3800
3800
3800
3800
3800
3800
1F80
0F80
0700
0700
0E00
1C00
ENDCHAR
STARTCHAR CARON
ENCODING -1
SWIDTH 480 0
DWIDTH 12 0
BBX 9 5 2 15
BITMAP
E380
7700
3E00
1C00
0800
ENDCHAR
STARTCHAR BREVE
ENCODING -1
SWIDTH 480 0
DWIDTH 12 0
BBX 11 3 1 17
BITMAP
E0E0
7FC0
3F80
ENDCHAR
STARTCHAR DOT
ENCODING -1
SWIDTH 480 0
DWIDTH 12 0
BBX 3 3 5 16
BITMAP
E0
E0
E0
ENDCHAR
STARTCHAR OGONEK
ENCODING -1
SWIDTH 480 0
DWIDTH 12 0
BBX 4 4 8 -4
BITMAP
70
E0
E0
70
ENDCHAR
STARTCHAR DOUBLE
ENCODING -1
SWIDTH 480 0
DWIDTH 12 0
BBX 10 4 2 16
BITMAP
1DC0
3B80
7700
EE00
ENDCHAR
STARTCHAR GREEK
ENCODING -1
SWIDTH 480 0
DWIDTH 12 0
BBX 3 4 5 -4
BITMAP
E0
E0
E0
E0
ENDCHAR
STARTCHAR GREEK
ENCODING -1
SWIDTH 480 0
DWIDTH 12 0
BBX 5 12 3 -2
BITMAP
38
38
38
00
00
00
00
38
38
38
70
E0
ENDCHAR
STARTCHAR GREEK
ENCODING -1
SWIDTH 480 0
DWIDTH 12 0
BBX 6 4 5 16
BITMAP
1C
38
70
E0
ENDCHAR
STARTCHAR GREEK
ENCODING -1
SWIDTH 480 0
DWIDTH 12 0
BBX 11 6 1 14
BITMAP
01C0
0380
0700
EEE0
E0E0
E0E0
ENDCHAR
STARTCHAR GREEK
ENCODING -1
SWIDTH 480 0
DWIDTH 12 0
BBX 12 16 0 0
BITMAP
1C00
3800
77C0
EFE0
1870
3870
3870
3870
3870
3870
3FF0
3FF0
3870
3870
3870
3870
ENDCHAR
STARTCHAR GREEK
ENCODING -1
SWIDTH 480 0
DWIDTH 12 0
BBX 12 16 0 0
BITMAP
1C00
3800
77F0
EFF0
1800
3800
3800
3800
3F80
3F80
3800
3800
3800
3800
3FF0
3FF0
ENDCHAR
STARTCHAR GREEK
ENCODING -1
SWIDTH 480 0
DWIDTH 12 0
BBX 12 16 0 0
BITMAP
1C00
3800
7070
E870
1870
3870
3870
3870
3FF0
3FF0
3870
3870
3870
3870
3870
3870
ENDCHAR
STARTCHAR GREEK
ENCODING -1
SWIDTH 480 0
DWIDTH 12 0
BBX 10 16 1 0
BITMAP
1C00
3800
77C0
E7C0
0380
0380
0380
0380
0380
0380
0380
0380
0380
0380
07C0
07C0
ENDCHAR
STARTCHAR GREEK
ENCODING -1
SWIDTH 480 0
DWIDTH 12 0
BBX 12 16 0 0
BITMAP
1C00
3800
77C0
EFE0
1870
3870
3870
3870
3870
3870
3870
3870
3870
3870
1FE0
0FC0
ENDCHAR
STARTCHAR GREEK
ENCODING -1
SWIDTH 480 0
DWIDTH 12 0
BBX 12 16 0 0
BITMAP
1C00
3800
7070
E870
1870
3870
1CE0
0FC0
0780
0380
0380
0380
0380
0380
0380
0380
ENDCHAR
STARTCHAR GREEK
ENCODING -1
SWIDTH 480 0
DWIDTH 12 0
BBX 12 16 0 0
BITMAP
1C00
3800
77C0
EFE0
1870
3870
3870
3870
3870
3870
3870
3870
1CE0
0CC0
3CF0
3CF0
ENDCHAR
STARTCHAR GREEK
ENCODING -1
SWIDTH 480 0
DWIDTH 12 0
BBX 9 20 2 0
BITMAP
0380
0700
0E00
1C00
0000
E380
E380
E380
0000
0000
1C00
1C00
1C00
1C00
1C00
1C00
1C00
1C00
1C00
0E00
ENDCHAR
STARTCHAR GREEK
ENCODING -1
SWIDTH 480 0
DWIDTH 12 0
BBX 11 14 1 0
BITMAP
3F80
7FC0
E0E0
E0E0
E0E0
E0E0
E0E0
E0E0
FFE0
FFE0
E0E0
E0E0
E0E0
E0E0
ENDCHAR
STARTCHAR GREEK
ENCODING -1
SWIDTH 480 0
DWIDTH 12 0
BBX 11 14 1 0
BITMAP
FF80
FFC0
E0E0
E0E0
E0E0
E0E0
FFC0
FFC0
E0E0
E0E0
E0E0
E0E0
FFC0
FF80
ENDCHAR
STARTCHAR GREEK
ENCODING -1
SWIDTH 480 0
DWIDTH 12 0
BBX 11 14 1 0
BITMAP
0E00
0E00
1F00
1F00
3B80
3B80
71C0
71C0
E0E0
E0E0
E0E0
E0E0
FFE0
FFE0
ENDCHAR
STARTCHAR GREEK
ENCODING -1
SWIDTH 480 0
DWIDTH 12 0
BBX 11 14 1 0
BITMAP
FFE0
FFE0
E000
E000
E000
E000
FE00
FE00
E000
E000
E000
E000
FFE0
FFE0
ENDCHAR
STARTCHAR GREEK
ENCODING -1
SWIDTH 480 0
DWIDTH 12 0
BBX 11 14 1 0
BITMAP
FFE0
FFE0
00E0
01C0
0380
0700
0E00
1C00
3800
7000
E000
E000
FFE0
FFE0
ENDCHAR
STARTCHAR GREEK
ENCODING -1
SWIDTH 480 0
DWIDTH 12 0
BBX 11 14 1 0
BITMAP
E0E0
E0E0
E0E0
E0E0
E0E0
E0E0
FFE0
FFE0
E0E0
E0E0
E0E0
E0E0
E0E0
E0E0
ENDCHAR
STARTCHAR GREEK
ENCODING -1
SWIDTH 480 0
DWIDTH 12 0
BBX 5 14 4 0
BITMAP
F8
F8
70
70
70
70
70
70
70
70
70
70
F8
F8
ENDCHAR
STARTCHAR GREEK
ENCODING -1
SWIDTH 480 0
DWIDTH 12 0
BBX 11 14 1 0
BITMAP
E0E0
E1C0
E380
E700
EE00
FC00
F800
F800
FC00
EE00
E700
E380
E1C0
E0E0
ENDCHAR
STARTCHAR GREEK
ENCODING -1
SWIDTH 480 0
DWIDTH 12 0
BBX 11 14 1 0
BITMAP
0E00
0E00
1F00
1F00
1F00
3B80
3B80
3B80
71C0
71C0
71C0
E0E0
E0E0
E0E0
ENDCHAR
STARTCHAR GREEK
ENCODING -1
SWIDTH 480 0
DWIDTH 12 0
BBX 11 14 1 0
BITMAP
C060
E0E0
F1E0
FBE0
FFE0
EEE0
E4E0
E0E0
E0E0
E0E0
E0E0
E0E0
E0E0
E0E0
ENDCHAR
STARTCHAR GREEK
ENCODING -1
SWIDTH 480 0
DWIDTH 12 0
BBX 11 14 1 0
BITMAP
E0E0
E0E0
E0E0
F0E0
F8E0
FCE0
EEE0
E7E0
E3E0
E1E0
E0E0
E0E0
E0E0
E0E0
ENDCHAR
STARTCHAR GREEK
ENCODING -1
SWIDTH 480 0
DWIDTH 12 0
BBX 11 14 1 0
BITMAP
FFE0
FFE0
FFE0
0000
0000
0000
3F80
3F80
0000
0000
0000
FFE0
FFE0
FFE0
ENDCHAR
STARTCHAR GREEK
ENCODING -1
SWIDTH 480 0
DWIDTH 12 0
BBX 11 14 1 0
BITMAP
3F80
7FC0
E0E0
E0E0
E0E0
E0E0
E0E0
E0E0
E0E0
E0E0
E0E0
E0E0
7FC0
3F80
ENDCHAR
STARTCHAR GREEK
ENCODING -1
SWIDTH 480 0
DWIDTH 12 0
BBX 11 14 1 0
BITMAP
FFE0
FFE0
E0E0
E0E0
E0E0
E0E0
E0E0
E0E0
E0E0
E0E0
E0E0
E0E0
E0E0
E0E0
ENDCHAR
STARTCHAR GREEK
ENCODING -1
SWIDTH 480 0
DWIDTH 12 0
BBX 11 14 1 0
BITMAP
FF80
FFC0
E0E0
E0E0
E0E0
E0E0
E0E0
E0E0
FFC0
FF80
E000
E000
E000
E000
ENDCHAR
STARTCHAR GREEK
ENCODING -1
SWIDTH 480 0
DWIDTH 12 0
BBX 11 14 1 0
BITMAP
FFE0
FFE0
0E00
0E00
0E00
0E00
0E00
0E00
0E00
0E00
0E00
0E00
0E00
0E00
ENDCHAR
STARTCHAR GREEK
ENCODING -1
SWIDTH 480 0
DWIDTH 12 0
BBX 11 14 1 0
BITMAP
E0E0
E0E0
E0E0
E0E0
71C0
3B80
1F00
0E00
0E00
0E00
0E00
0E00
0E00
0E00
ENDCHAR
STARTCHAR GREEK
ENCODING -1
SWIDTH 480 0
DWIDTH 12 0
BBX 11 14 1 0
BITMAP
E0E0
E0E0
E0E0
71C0
3B80
1F00
0E00
0E00
1F00
3B80
71C0
E0E0
E0E0
E0E0
ENDCHAR
STARTCHAR GREEK
ENCODING -1
SWIDTH 480 0
DWIDTH 12 0
BBX 11 14 1 0
BITMAP
EEE0
EEE0
EEE0
EEE0
EEE0
EEE0
7FC0
3F80
0E00
0E00
0E00
0E00
0E00
0E00
ENDCHAR
STARTCHAR GREEK
ENCODING -1
SWIDTH 480 0
DWIDTH 12 0
BBX 9 19 2 0
BITMAP
E380
E380
E380
0000
0000
3E00
3E00
1C00
1C00
1C00
1C00
1C00
1C00
1C00
1C00
1C00
1C00
3E00
3E00
ENDCHAR
STARTCHAR GREEK
ENCODING -1
SWIDTH 480 0
DWIDTH 12 0
BBX 11 19 1 0
BITMAP
71C0
71C0
71C0
0000
0000
E0E0
E0E0
E0E0
E0E0
71C0
3B80
1F00
0E00
0E00
0E00
0E00
0E00
0E00
0E00
ENDCHAR
STARTCHAR GREEK
ENCODING -1
SWIDTH 480 0
DWIDTH 12 0
BBX 11 16 1 0
BITMAP
01C0
0380
0700
0E00
0000
0000
3F60
7FE0
E1C0
E1C0
E1C0
E1C0
E1C0
E1C0
7FE0
3EE0
ENDCHAR
STARTCHAR GREEK
ENCODING -1
SWIDTH 480 0
DWIDTH 12 0
BBX 11 16 1 0
BITMAP
01C0
0380
0700
0E00
0000
0000
3FE0
7FE0
E000
E000
7E00
7E00
E000
E000
7FE0
3FE0
ENDCHAR
STARTCHAR GREEK
ENCODING -1
SWIDTH 480 0
DWIDTH 12 0
BBX 11 20 1 -4
BITMAP
01C0
0380
0700
0E00
0000
0000
FF80
FFC0
E0E0
E0E0
E0E0
E0E0
E0E0
E0E0
E0E0
E0E0
00E0
00E0
00E0
00E0
ENDCHAR
STARTCHAR GREEK
ENCODING -1
SWIDTH 480 0
DWIDTH 12 0
BBX 6 16 5 0
BITMAP
1C
38
70
E0
00
00
E0
E0
E0
E0
E0
E0
E0
E0
E0
70
ENDCHAR
STARTCHAR GREEK
ENCODING -1
SWIDTH 480 0
DWIDTH 12 0
BBX 11 20 1 0
BITMAP
01C0
0380
0700
0E00
0000
71C0
71C0
71C0
0000
0000
E0E0
E0E0
E0E0
E0E0
E0E0
E0E0
E0E0
E0E0
7FC0
3F80
ENDCHAR
STARTCHAR GREEK
ENCODING -1
SWIDTH 480 0
DWIDTH 12 0
BBX 11 20 1 -4
BITMAP
3E00
7F00
E380
E380
E380
E700
EE00
EE00
E700
E380
E1C0
E0E0
E0E0
E0E0
EFC0
EF80
E000
E000
E000
E000
ENDCHAR
STARTCHAR GREEK
ENCODING -1
SWIDTH 480 0
DWIDTH 12 0
BBX 11 14 1 -4
BITMAP
E0E0
E0E0
71C0
71C0
3B80
3B80
1F00
1F00
0E00
0E00
0E00
0E00
0E00
0E00
ENDCHAR
STARTCHAR GREEK
ENCODING -1
SWIDTH 480 0
DWIDTH 12 0
BBX 11 18 1 -2
BITMAP
FFE0
FFE0
00E0
01C0
0380
0700
0E00
1C00
3800
7000
E000
E000
E000
E000
7F80
3FC0
00E0
00E0
ENDCHAR
STARTCHAR GREEK
ENCODING -1
SWIDTH 480 0
DWIDTH 12 0
BBX 11 14 1 -4
BITMAP
FF80
FFC0
E0E0
E0E0
E0E0
E0E0
E0E0
E0E0
E0E0
E0E0
00E0
00E0
00E0
00E0
ENDCHAR
STARTCHAR GREEK
ENCODING -1
SWIDTH 480 0
DWIDTH 12 0
BBX 11 16 1 0
BITMAP
3F80
7FC0
E0E0
E0E0
E0E0
E0E0
E0E0
FFE0
FFE0
E0E0
E0E0
E0E0
E0E0
E0E0
7FC0
3F80
ENDCHAR
STARTCHAR GREEK
ENCODING -1
SWIDTH 480 0
DWIDTH 12 0
BBX 4 10 5 0
BITMAP
E0
E0
E0
E0
E0
E0
E0
E0
E0
70
ENDCHAR
STARTCHAR GREEK
ENCODING -1
SWIDTH 480 0
DWIDTH 12 0
BBX 9 10 2 0
BITMAP
E380
E700
EE00
FC00
F800
F800
FC00
EE00
E700
E380
ENDCHAR
STARTCHAR GREEK
ENCODING -1
SWIDTH 480 0
DWIDTH 12 0
BBX 11 16 1 0
BITMAP
3800
3C00
0E00
0E00
0700
0700
0F00
0F80
1F80
1F80
39C0
39C0
71C0
70E0
E0E0
E0E0
ENDCHAR
STARTCHAR GREEK
ENCODING -1
SWIDTH 480 0
DWIDTH 12 0
BBX 11 14 1 -4
BITMAP
E0E0
E0E0
E0E0
E0E0
E0E0
E0E0
E0E0
E0E0
FFC0
FF80
E000
E000
E000
E000
ENDCHAR
STARTCHAR GREEK
ENCODING -1
SWIDTH 480 0
DWIDTH 12 0
BBX 11 10 1 0
BITMAP
E0E0
E0E0
70E0
70E0
38E0
39C0
1DC0
1F80
0F00
0E00
ENDCHAR
STARTCHAR GREEK
ENCODING -1
SWIDTH 480 0
DWIDTH 12 0
BBX 11 18 1 -2
BITMAP
3FE0
3FE0
0E00
1C00
3800
1C00
0F80
1F80
3800
7000
E000
E000
E000
E000
7F80
3FC0
00E0
00E0
ENDCHAR
STARTCHAR GREEK
ENCODING -1
SWIDTH 480 0
DWIDTH 12 0
BBX 11 10 1 0
BITMAP
3F80
7FC0
E0E0
E0E0
E0E0
E0E0
E0E0
E0E0
7FC0
3F80
ENDCHAR
STARTCHAR GREEK
ENCODING -1
SWIDTH 480 0
DWIDTH 12 0
BBX 11 14 1 -4
BITMAP
3F80
7FC0
E0E0
E0E0
E0E0
E0E0
E0E0
E0E0
FFC0
FF80
E000
E000
E000
E000
ENDCHAR
STARTCHAR GREEK
ENCODING -1
SWIDTH 480 0
DWIDTH 12 0
BBX 11 12 1 -2
BITMAP
3FE0
7FE0
E000
E000
E000
E000
E000
E000
7F80
3FC0
00E0
00E0
ENDCHAR
STARTCHAR GREEK
ENCODING -1
SWIDTH 480 0
DWIDTH 12 0
BBX 11 10 1 0
BITMAP
E0E0
E0E0
E0E0
E0E0
E0E0
E0E0
E0E0
E0E0
7FC0
3F80
ENDCHAR
STARTCHAR GREEK
ENCODING -1
SWIDTH 480 0
DWIDTH 12 0
BBX 11 14 1 -4
BITMAP
F8E0
FCE0
0EE0
0EE0
0FC0
0F80
0F00
1E00
3E00
7E00
EE00
EE00
E7E0
E3E0
ENDCHAR
STARTCHAR GREEK
ENCODING -1
SWIDTH 480 0
DWIDTH 12 0
BBX 11 18 1 -4
BITMAP
0E00
0E00
0E00
0E00
EEE0
EEE0
EEE0
EEE0
EEE0
EEE0
EEE0
EEE0
7FC0
3F80
0E00
0E00
0E00
0E00
ENDCHAR
STARTCHAR GREEK
ENCODING -1
SWIDTH 480 0
DWIDTH 12 0
BBX 11 10 1 0
BITMAP
3180
71C0
E0E0
E0E0
EEE0
EEE0
EEE0
EEE0
7FC0
3B80
ENDCHAR
STARTCHAR GREEK
ENCODING -1
SWIDTH 480 0
DWIDTH 12 0
BBX 9 15 2 0
BITMAP
E380
E380
E380
0000
0000
1C00
1C00
1C00
1C00
1C00
1C00
1C00
1C00
1C00
0E00
ENDCHAR
STARTCHAR GREEK
ENCODING -1
SWIDTH 480 0
DWIDTH 12 0
BBX 11 15 1 0
BITMAP
71C0
71C0
71C0
0000
0000
E0E0
E0E0
E0E0
E0E0
E0E0
E0E0
E0E0
E0E0
7FC0
3F80
ENDCHAR
STARTCHAR GREEK
ENCODING -1
SWIDTH 480 0
DWIDTH 12 0
BBX 11 16 1 0
BITMAP
01C0
0380
0700
0E00
0000
0000
3F80
7FC0
E0E0
E0E0
E0E0
E0E0
E0E0
E0E0
7FC0
3F80
ENDCHAR
STARTCHAR GREEK
ENCODING -1
SWIDTH 480 0
DWIDTH 12 0
BBX 11 16 1 0
BITMAP
01C0
0380
0700
0E00
0000
0000
E0E0
E0E0
E0E0
E0E0
E0E0
E0E0
E0E0
E0E0
7FC0
3F80
ENDCHAR
STARTCHAR GREEK
ENCODING -1
SWIDTH 480 0
DWIDTH 12 0
BBX 11 16 1 0
BITMAP
01C0
0380
0700
0E00
0000
0000
3180
71C0
E0E0
E0E0
EEE0
EEE0
EEE0
EEE0
7FC0
3B80
ENDCHAR
STARTCHAR CYRILLIC
ENCODING -1
SWIDTH 480 0
DWIDTH 12 0
BBX 11 19 1 0
BITMAP
71C0
71C0
71C0
0000
0000
FFE0
FFE0
E000
E000
E000
E000
FE00
FE00
E000
E000
E000
E000
FFE0
FFE0
ENDCHAR
STARTCHAR CYRILLIC
ENCODING -1
SWIDTH 480 0
DWIDTH 12 0
BBX 12 16 0 -2
BITMAP
FE00
FE00
7000
7000
7000
7000
7FC0
7FE0
7070
7070
7070
7070
7070
7070
01E0
01C0
ENDCHAR
STARTCHAR CYRILLIC
ENCODING -1
SWIDTH 480 0
DWIDTH 12 0
BBX 11 20 1 0
BITMAP
01C0
0380
0700
0E00
0000
0000
FFE0
FFE0
E000
E000
E000
E000
E000
E000
E000
E000
E000
E000
E000
E000
ENDCHAR
STARTCHAR CYRILLIC
ENCODING -1
SWIDTH 480 0
DWIDTH 12 0
BBX 11 14 1 0
BITMAP
3FE0
7FE0
E000
E000
E000
E000
FE00
FE00
E000
E000
E000
E000
7FE0
3FE0
ENDCHAR
STARTCHAR CYRILLIC
ENCODING -1
SWIDTH 480 0
DWIDTH 12 0
BBX 11 14 1 0
BITMAP
3FE0
7FE0
E000
E000
E000
E000
7F80
3FC0
00E0
00E0
00E0
00E0
FFC0
FF80
ENDCHAR
STARTCHAR CYRILLIC
ENCODING -1
SWIDTH 480 0
DWIDTH 12 0
BBX 5 14 4 0
BITMAP
F8
F8
70
70
70
70
70
70
70
70
70
70
F8
F8
ENDCHAR
STARTCHAR CYRILLIC
ENCODING -1
SWIDTH 480 0
DWIDTH 12 0
BBX 9 19 2 0
BITMAP
E380
E380
E380
0000
0000
3E00
3E00
1C00
1C00
1C00
1C00
1C00
1C00
1C00
1C00
1C00
1C00
3E00
3E00
ENDCHAR
STARTCHAR CYRILLIC
ENCODING -1
SWIDTH 480 0
DWIDTH 12 0
BBX 11 14 1 0
BITMAP
00E0
00E0
00E0
00E0
00E0
00E0
00E0
00E0
00E0
00E0
E0E0
E0E0
7FC0
3F80
ENDCHAR
STARTCHAR CYRILLIC
ENCODING -1
SWIDTH 480 0
DWIDTH 12 0
BBX 12 14 0 0
BITMAP
1F00
3F00
7700
7700
7700
7700
77C0
77E0
7770
7770
7770
7770
E7E0
C7C0
ENDCHAR
STARTCHAR CYRILLIC
ENCODING -1
SWIDTH 480 0
DWIDTH 12 0
BBX 12 14 0 0
BITMAP
E700
E700
E700
E700
E700
E700
FFC0
FFE0
E770
E770
E770
E770
E7E0
E7C0
ENDCHAR
STARTCHAR CYRILLIC
ENCODING -1
SWIDTH 480 0
DWIDTH 12 0
BBX 12 14 0 0
BITMAP
FE00
FE00
7000
7000
7000
7000
7FC0
7FE0
7070
7070
7070
7070
7070
7070
ENDCHAR
STARTCHAR CYRILLIC
ENCODING -1
SWIDTH 480 0
DWIDTH 12 0
BBX 11 20 1 0
BITMAP
01C0
0380
0700
0E00
0000
0000
E0E0
E1C0
E380
E700
EE00
FC00
F800
F800
FC00
EE00
E700
E380
E1C0
E0E0
ENDCHAR
STARTCHAR CYRILLIC
ENCODING -1
SWIDTH 480 0
DWIDTH 12 0
BBX 11 19 1 0
BITMAP
71C0
3F80
1F00
0000
0000
E0E0
E0E0
E0E0
E0E0
E0E0
E0E0
7FE0
3FE0
00E0
00E0
00E0
00E0
1FC0
1F80
ENDCHAR
STARTCHAR CYRILLIC
ENCODING -1
SWIDTH 480 0
DWIDTH 12 0
BBX 11 17 1 -3
BITMAP
E0E0
E0E0
E0E0
E0E0
E0E0
E0E0
E0E0
E0E0
E0E0
E0E0
E0E0
E0E0
FFE0
FFE0
0E00
0E00
0E00
ENDCHAR
STARTCHAR CYRILLIC
ENCODING -1
SWIDTH 480 0
DWIDTH 12 0
BBX 11 14 1 0
BITMAP
3F80
7FC0
E0E0
E0E0
E0E0
E0E0
E0E0
E0E0
FFE0
FFE0
E0E0
E0E0
E0E0
E0E0
ENDCHAR
STARTCHAR CYRILLIC
ENCODING -1
SWIDTH 480 0
DWIDTH 12 0
BBX 11 14 1 0
BITMAP
FF80
FF80
E000
E000
E000
E000
FF80
FFC0
E0E0
E0E0
E0E0
E0E0
FFC0
FF80
ENDCHAR
STARTCHAR CYRILLIC
ENCODING -1
SWIDTH 480 0
DWIDTH 12 0
BBX 11 14 1 0
BITMAP
FF80
FFC0
E0E0
E0E0
E0E0
E0E0
FFC0
FFC0
E0E0
E0E0
E0E0
E0E0
FFC0
FF80
ENDCHAR
STARTCHAR CYRILLIC
ENCODING -1
SWIDTH 480 0
DWIDTH 12 0
BBX 11 14 1 0
BITMAP
FFE0
FFE0
E000
E000
E000
E000
E000
E000
E000
E000
E000
E000
E000
E000
ENDCHAR
STARTCHAR CYRILLIC
ENCODING -1
SWIDTH 480 0
DWIDTH 12 0
BBX 12 16 0 -2
BITMAP
1FE0
3FE0
70E0
70E0
70E0
70E0
70E0
70E0
70E0
70E0
70E0
70E0
FFF0
FFF0
E070
E070
ENDCHAR
STARTCHAR CYRILLIC
ENCODING -1
SWIDTH 480 0
DWIDTH 12 0
BBX 11 14 1 0
BITMAP
FFE0
FFE0
E000
E000
E000
E000
FE00
FE00
E000
E000
E000
E000
FFE0
FFE0
ENDCHAR
STARTCHAR CYRILLIC
ENCODING -1
SWIDTH 480 0
DWIDTH 12 0
BBX 12 14 0 0
BITMAP
E670
F6F0
76E0
76E0
76E0
76E0
3FC0
3FC0
76E0
76E0
76E0
76E0
F6F0
E670
ENDCHAR
STARTCHAR CYRILLIC
ENCODING -1
SWIDTH 480 0
DWIDTH 12 0
BBX 11 14 1 0
BITMAP
FF80
FFC0
00E0
00E0
00E0
00E0
0FC0
0FC0
00E0
00E0
00E0
00E0
FFC0
FF80
ENDCHAR
STARTCHAR CYRILLIC
ENCODING -1
SWIDTH 480 0
DWIDTH 12 0
BBX 11 14 1 0
BITMAP
E0E0
E0E0
E0E0
E0E0
E1E0
E3E0
E7E0
EEE0
FCE0
F8E0
F0E0
E0E0
E0E0
E0E0
ENDCHAR
STARTCHAR CYRILLIC
ENCODING -1
SWIDTH 480 0
DWIDTH 12 0
BBX 11 19 1 0
BITMAP
71C0
3F80
1F00
0000
0000
E0E0
E0E0
E0E0
E0E0
E1E0
E3E0
E7E0
EEE0
FCE0
F8E0
F0E0
E0E0
E0E0
E0E0
ENDCHAR
STARTCHAR CYRILLIC
ENCODING -1
SWIDTH 480 0
DWIDTH 12 0
BBX 11 14 1 0
BITMAP
E0E0
E1C0
E380
E700
EE00
FC00
F800
F800
FC00
EE00
E700
E380
E1C0
E0E0
ENDCHAR
STARTCHAR CYRILLIC
ENCODING -1
SWIDTH 480 0
DWIDTH 12 0
BBX 11 14 1 0
BITMAP
0FE0
1FE0
38E0
38E0
38E0
38E0
38E0
38E0
38E0
38E0
38E0
38E0
F0E0
E0E0
ENDCHAR
STARTCHAR CYRILLIC
ENCODING -1
SWIDTH 480 0
DWIDTH 12 0
BBX 11 14 1 0
BITMAP
C060
E0E0
F1E0
FBE0
FFE0
EEE0
E4E0
E0E0
E0E0
E0E0
E0E0
E0E0
E0E0
E0E0
ENDCHAR
STARTCHAR CYRILLIC
ENCODING -1
SWIDTH 480 0
DWIDTH 12 0
BBX 11 14 1 0
BITMAP
E0E0
E0E0
E0E0
E0E0
E0E0
E0E0
FFE0
FFE0
E0E0
E0E0
E0E0
E0E0
E0E0
E0E0
ENDCHAR
STARTCHAR CYRILLIC
ENCODING -1
SWIDTH 480 0
DWIDTH 12 0
BBX 11 14 1 0
BITMAP
3F80
7FC0
E0E0
E0E0
E0E0
E0E0
E0E0
E0E0
E0E0
E0E0
E0E0
E0E0
7FC0
3F80
ENDCHAR
STARTCHAR CYRILLIC
ENCODING -1
SWIDTH 480 0
DWIDTH 12 0
BBX 11 14 1 0
BITMAP
FFE0
FFE0
E0E0
E0E0
E0E0
E0E0
E0E0
E0E0
E0E0
E0E0
E0E0
E0E0
E0E0
E0E0
ENDCHAR
STARTCHAR CYRILLIC
ENCODING -1
SWIDTH 480 0
DWIDTH 12 0
BBX 11 14 1 0
BITMAP
FF80
FFC0
E0E0
E0E0
E0E0
E0E0
E0E0
E0E0
FFC0
FF80
E000
E000
E000
E000
ENDCHAR
STARTCHAR CYRILLIC
ENCODING -1
SWIDTH 480 0
DWIDTH 12 0
BBX 11 14 1 0
BITMAP
3FE0
7FE0
E000
E000
E000
E000
E000
E000
E000
E000
E000
E000
7FE0
3FE0
ENDCHAR
STARTCHAR CYRILLIC
ENCODING -1
SWIDTH 480 0
DWIDTH 12 0
BBX 11 14 1 0
BITMAP
FFE0
FFE0
0E00
0E00
0E00
0E00
0E00
0E00
0E00
0E00
0E00
0E00
0E00
0E00
ENDCHAR
STARTCHAR CYRILLIC
ENCODING -1
SWIDTH 480 0
DWIDTH 12 0
BBX 11 14 1 0
BITMAP
E0E0
E0E0
E0E0
E0E0
E0E0
E0E0
7FE0
3FE0
00E0
00E0
00E0
00E0
1FC0
1F80
ENDCHAR
STARTCHAR CYRILLIC
ENCODING -1
SWIDTH 480 0
DWIDTH 12 0
BBX 11 14 1 0
BITMAP
0E00
0E00
3F80
7FC0
EEE0
EEE0
EEE0
EEE0
EEE0
EEE0
7FC0
3F80
0E00
0E00
ENDCHAR
STARTCHAR CYRILLIC
ENCODING -1
SWIDTH 480 0
DWIDTH 12 0
BBX 11 14 1 0
BITMAP
E0E0
E0E0
E0E0
71C0
3B80
1F00
0E00
0E00
1F00
3B80
71C0
E0E0
E0E0
E0E0
ENDCHAR
STARTCHAR CYRILLIC
ENCODING -1
SWIDTH 480 0
DWIDTH 12 0
BBX 12 16 0 -2
BITMAP
E0E0
E0E0
E0E0
E0E0
E0E0
E0E0
E0E0
E0E0
E0E0
E0E0
E0E0
E0E0
FFE0
FFF0
0070
0070
ENDCHAR
STARTCHAR CYRILLIC
ENCODING -1
SWIDTH 480 0
DWIDTH 12 0
BBX 11 14 1 0
BITMAP
E0E0
E0E0
E0E0
E0E0
E0E0
E0E0
7FE0
3FE0
00E0
00E0
00E0
00E0
00E0
00E0
ENDCHAR
STARTCHAR CYRILLIC
ENCODING -1
SWIDTH 480 0
DWIDTH 12 0
BBX 11 14 1 0
BITMAP
EEE0
EEE0
EEE0
EEE0
EEE0
EEE0
EEE0
EEE0
EEE0
EEE0
EEE0
EEE0
FFE0
FFE0
ENDCHAR
STARTCHAR CYRILLIC
ENCODING -1
SWIDTH 480 0
DWIDTH 12 0
BBX 12 16 0 -2
BITMAP
EEE0
EEE0
EEE0
EEE0
EEE0
EEE0
EEE0
EEE0
EEE0
EEE0
EEE0
EEE0
FFE0
FFF0
0070
0070
ENDCHAR
STARTCHAR CYRILLIC
ENCODING -1
SWIDTH 480 0
DWIDTH 12 0
BBX 12 14 0 0
BITMAP
F800
F800
3800
3800
3800
3800
3FC0
3FE0
3870
3870
3870
3870
3FE0
3FC0
ENDCHAR
STARTCHAR CYRILLIC
ENCODING -1
SWIDTH 480 0
DWIDTH 12 0
BBX 12 14 0 0
BITMAP
E070
E070
E070
E070
E070
E070
FE70
FF70
E3F0
E3F0
E3F0
E3F0
FF70
FE70
ENDCHAR
STARTCHAR CYRILLIC
ENCODING -1
SWIDTH 480 0
DWIDTH 12 0
BBX 11 14 1 0
BITMAP
E000
E000
E000
E000
E000
E000
FF80
FFC0
E0E0
E0E0
E0E0
E0E0
FFC0
FF80
ENDCHAR
STARTCHAR CYRILLIC
ENCODING -1
SWIDTH 480 0
DWIDTH 12 0
BBX 11 14 1 0
BITMAP
FF80
FFC0
00E0
00E0
00E0
00E0
0FE0
0FE0
00E0
00E0
00E0
00E0
FFC0
FF80
ENDCHAR
STARTCHAR CYRILLIC
ENCODING -1
SWIDTH 480 0
DWIDTH 12 0
BBX 12 14 0 0
BITMAP
E7C0
EFE0
FC70
FC70
FC70
FC70
FC70
FC70
FC70
FC70
FC70
FC70
EFE0
E7C0
ENDCHAR
STARTCHAR CYRILLIC
ENCODING -1
SWIDTH 480 0
DWIDTH 12 0
BBX 11 14 1 0
BITMAP
3FE0
7FE0
E0E0
E0E0
E0E0
E0E0
E0E0
E0E0
7FE0
3FE0
1CE0
38E0
70E0
E0E0
ENDCHAR
STARTCHAR CYRILLIC
ENCODING -1
SWIDTH 480 0
DWIDTH 12 0
BBX 11 10 1 0
BITMAP
3F80
3FC0
00E0
00E0
3FE0
7FE0
E0E0
E0E0
7FE0
3FE0
ENDCHAR
STARTCHAR CYRILLIC
ENCODING -1
SWIDTH 480 0
DWIDTH 12 0
BBX 11 17 1 0
BITMAP
00E0
0FC0
3F80
3800
7000
7000
E000
FF80
FFC0
E0E0
E0E0
E0E0
E0E0
E0E0
E0E0
7FC0
3F80
ENDCHAR
STARTCHAR CYRILLIC
ENCODING -1
SWIDTH 480 0
DWIDTH 12 0
BBX 11 10 1 0
BITMAP
FF80
FFC0
E0E0
E0E0
FFC0
FFC0
E0E0
E0E0
FFC0
FF80
ENDCHAR
STARTCHAR CYRILLIC
ENCODING -1
SWIDTH 480 0
DWIDTH 12 0
BBX 11 10 1 0
BITMAP
FFE0
FFE0
E000
E000
E000
E000
E000
E000
E000
E000
ENDCHAR
STARTCHAR CYRILLIC
ENCODING -1
SWIDTH 480 0
DWIDTH 12 0
BBX 11 12 1 -2
BITMAP
1FC0
3FC0
71C0
71C0
71C0
71C0
71C0
71C0
FFE0
FFE0
E0E0
E0E0
ENDCHAR
STARTCHAR CYRILLIC
ENCODING -1
SWIDTH 480 0
DWIDTH 12 0
BBX 11 10 1 0
BITMAP
3F80
7FC0
E0E0
E0E0
FFE0
FFE0
E000
E000
7F80
3F80
ENDCHAR
STARTCHAR CYRILLIC
ENCODING -1
SWIDTH 480 0
DWIDTH 12 0
BBX 12 10 0 0
BITMAP
E670
76E0
76E0
76E0
3FC0
3FC0
76E0
76E0
76E0
E670
ENDCHAR
STARTCHAR CYRILLIC
ENCODING -1
SWIDTH 480 0
DWIDTH 12 0
BBX 11 10 1 0
BITMAP
FF80
FFC0
00E0
00E0
0FC0
0FC0
00E0
00E0
FFC0
FF80
ENDCHAR
STARTCHAR CYRILLIC
ENCODING -1
SWIDTH 480 0
DWIDTH 12 0
BBX 11 10 1 0
BITMAP
E0E0
E0E0
E1E0
E3E0
E7E0
EEE0
FCE0
F8E0
F0E0
E0E0
ENDCHAR
STARTCHAR CYRILLIC
ENCODING -1
SWIDTH 480 0
DWIDTH 12 0
BBX 11 15 1 0
BITMAP
71C0
3F80
1F00
0000
0000
E0E0
E0E0
E1E0
E3E0
E7E0
EEE0
FCE0
F8E0
F0E0
E0E0
ENDCHAR
STARTCHAR CYRILLIC
ENCODING -1
SWIDTH 480 0
DWIDTH 12 0
BBX 9 10 2 0
BITMAP
E380
E700
EE00
FC00
F800
F800
FC00
EE00
E700
E380
ENDCHAR
STARTCHAR CYRILLIC
ENCODING -1
SWIDTH 480 0
DWIDTH 12 0
BBX 11 10 1 0
BITMAP
0FE0
1FE0
38E0
38E0
38E0
38E0
38E0
38E0
F0E0
E0E0
ENDCHAR
STARTCHAR CYRILLIC
ENCODING -1
SWIDTH 480 0
DWIDTH 12 0
BBX 11 10 1 0
BITMAP
C060
E0E0
F1E0
FBE0
FFE0
EEE0
E4E0
E0E0
E0E0
E0E0
ENDCHAR
STARTCHAR CYRILLIC
ENCODING -1
SWIDTH 480 0
DWIDTH 12 0
BBX 11 10 1 0
BITMAP
E0E0
E0E0
E0E0
E0E0
FFE0
FFE0
E0E0
E0E0
E0E0
E0E0
ENDCHAR
STARTCHAR CYRILLIC
ENCODING -1
SWIDTH 480 0
DWIDTH 12 0
BBX 11 10 1 0
BITMAP
3F80
7FC0
E0E0
E0E0
E0E0
E0E0
E0E0
E0E0
7FC0
3F80
ENDCHAR
STARTCHAR CYRILLIC
ENCODING -1
SWIDTH 480 0
DWIDTH 12 0
BBX 11 10 1 0
BITMAP
FFE0
FFE0
E0E0
E0E0
E0E0
E0E0
E0E0
E0E0
E0E0
E0E0
ENDCHAR
STARTCHAR CYRILLIC
ENCODING -1
SWIDTH 480 0
DWIDTH 12 0
BBX 11 14 1 -4
BITMAP
FF80
FFC0
E0E0
E0E0
E0E0
E0E0
E0E0
E0E0
FFC0
FF80
E000
E000
E000
E000
ENDCHAR
STARTCHAR CYRILLIC
ENCODING -1
SWIDTH 480 0
DWIDTH 12 0
BBX 11 10 1 0
BITMAP
3FE0
7FE0
E000
E000
E000
E000
E000
E000
7FE0
3FE0
ENDCHAR
STARTCHAR CYRILLIC
ENCODING -1
SWIDTH 480 0
DWIDTH 12 0
BBX 11 10 1 0
BITMAP
FFE0
FFE0
0E00
0E00
0E00
0E00
0E00
0E00
0E00
0E00
ENDCHAR
STARTCHAR CYRILLIC
ENCODING -1
SWIDTH 480 0
DWIDTH 12 0
BBX 11 14 1 -4
BITMAP
E0E0
E0E0
E0E0
E0E0
E0E0
E0E0
E0E0
E0E0
7FE0
3FE0
00E0
00E0
1FC0
1F80
ENDCHAR
STARTCHAR CYRILLIC
ENCODING -1
SWIDTH 480 0
DWIDTH 12 0
BBX 11 18 1 -4
BITMAP
0E00
0E00
0E00
0E00
3F80
7FC0
EEE0
EEE0
EEE0
EEE0
EEE0
EEE0
7FC0
3F80
0E00
0E00
0E00
0E00
ENDCHAR
STARTCHAR CYRILLIC
ENCODING -1
SWIDTH 480 0
DWIDTH 12 0
BBX 11 10 1 0
BITMAP
E0E0
71C0
3B80
1F00
0E00
0E00
1F00
3B80
71C0
E0E0
ENDCHAR
STARTCHAR CYRILLIC
ENCODING -1
SWIDTH 480 0
DWIDTH 12 0
BBX 11 12 1 -2
BITMAP
E380
E380
E380
E380
E380
E380
E380
E380
FF80
FFE0
00E0
00E0
ENDCHAR
STARTCHAR CYRILLIC
ENCODING -1
SWIDTH 480 0
DWIDTH 12 0
BBX 11 10 1 0
BITMAP
E0E0
E0E0
E0E0
E0E0
7FE0
3FE0
00E0
00E0
00E0
00E0
ENDCHAR
STARTCHAR CYRILLIC
ENCODING -1
SWIDTH 480 0
DWIDTH 12 0
BBX 11 10 1 0
BITMAP
EEE0
EEE0
EEE0
EEE0
EEE0
EEE0
EEE0
EEE0
FFE0
FFE0
ENDCHAR
STARTCHAR CYRILLIC
ENCODING -1
SWIDTH 480 0
DWIDTH 12 0
BBX 12 12 0 -2
BITMAP
EEE0
EEE0
EEE0
EEE0
EEE0
EEE0
EEE0
EEE0
FFE0
FFF0
0070
0070
ENDCHAR
STARTCHAR CYRILLIC
ENCODING -1
SWIDTH 480 0
DWIDTH 12 0
BBX 12 10 0 0
BITMAP
F800
F800
3800
3800
3FC0
3FE0
3870
3870
3FE0
3FC0
ENDCHAR
STARTCHAR CYRILLIC
ENCODING -1
SWIDTH 480 0
DWIDTH 12 0
BBX 12 10 0 0
BITMAP
E070
E070
E070
E070
FF70
FFF0
E1F0
E1F0
FFF0
FF70
ENDCHAR
STARTCHAR CYRILLIC
ENCODING -1
SWIDTH 480 0
DWIDTH 12 0
BBX 11 10 1 0
BITMAP
E000
E000
E000
E000
FF80
FFC0
E0E0
E0E0
FFC0
FF80
ENDCHAR
STARTCHAR CYRILLIC
ENCODING -1
SWIDTH 480 0
DWIDTH 12 0
BBX 11 10 1 0
BITMAP
FF80
FFC0
00E0
00E0
0FE0
0FE0
00E0
00E0
FFC0
FF80
ENDCHAR
STARTCHAR CYRILLIC
ENCODING -1
SWIDTH 480 0
DWIDTH 12 0
BBX 12 10 0 0
BITMAP
E7C0
EFE0
FC70
FC70
FC70
FC70
FC70
FC70
EFE0
E7C0
ENDCHAR
STARTCHAR CYRILLIC
ENCODING -1
SWIDTH 480 0
DWIDTH 12 0
BBX 11 10 1 0
BITMAP
3FE0
7FE0
E0E0
E0E0
7FE0
3FE0
1CE0
38E0
70E0
E0E0
ENDCHAR
STARTCHAR CYRILLIC
ENCODING -1
SWIDTH 480 0
DWIDTH 12 0
BBX 11 15 1 0
BITMAP
71C0
71C0
71C0
0000
0000
3F80
7FC0
E0E0
E0E0
FFE0
FFE0
E000
E000
7F80
3F80
ENDCHAR
STARTCHAR CYRILLIC
ENCODING -1
SWIDTH 480 0
DWIDTH 12 0
BBX 12 20 0 -4
BITMAP
7000
7000
FE00
FE00
7000
7000
7FC0
7FE0
7070
7070
7070
7070
7070
7070
7070
7070
0070
0070
01E0
01C0
ENDCHAR
STARTCHAR CYRILLIC
ENCODING -1
SWIDTH 480 0
DWIDTH 12 0
BBX 11 16 1 0
BITMAP
01C0
0380
0700
0E00
0000
0000
FFE0
FFE0
E000
E000
E000
E000
E000
E000
E000
E000
ENDCHAR
STARTCHAR CYRILLIC
ENCODING -1
SWIDTH 480 0
DWIDTH 12 0
BBX 11 10 1 0
BITMAP
3FE0
7FE0
E000
E000
FE00
FE00
E000
E000
7FE0
3FE0
ENDCHAR
STARTCHAR CYRILLIC
ENCODING -1
SWIDTH 480 0
DWIDTH 12 0
BBX 11 10 1 0
BITMAP
3FE0
7FE0
E000
E000
7F80
3FC0
00E0
00E0
FFC0
FF80
ENDCHAR
STARTCHAR CYRILLIC
ENCODING -1
SWIDTH 480 0
DWIDTH 12 0
BBX 4 15 4 0
BITMAP
70
70
70
00
00
F0
F0
70
70
70
70
70
70
70
70
ENDCHAR
STARTCHAR CYRILLIC
ENCODING -1
SWIDTH 480 0
DWIDTH 12 0
BBX 9 15 2 0
BITMAP
E380
E380
E380
0000
0000
3C00
3C00
1C00
1C00
1C00
1C00
1C00
1C00
1C00
1C00
ENDCHAR
STARTCHAR CYRILLIC
ENCODING -1
SWIDTH 480 0
DWIDTH 12 0
BBX 5 19 3 -4
BITMAP
38
38
38
00
00
78
78
38
38
38
38
38
38
38
38
38
38
70
E0
ENDCHAR
STARTCHAR CYRILLIC
ENCODING -1
SWIDTH 480 0
DWIDTH 12 0
BBX 12 10 0 0
BITMAP
0F80
1F80
3B80
3B80
3BC0
3BE0
3B70
3B70
F3E0
E3C0
ENDCHAR
STARTCHAR CYRILLIC
ENCODING -1
SWIDTH 480 0
DWIDTH 12 0
BBX 12 10 0 0
BITMAP
E700
E700
E700
E700
FFC0
FFE0
E670
E670
E7E0
E7C0
ENDCHAR
STARTCHAR CYRILLIC
ENCODING -1
SWIDTH 480 0
DWIDTH 12 0
BBX 12 16 0 0
BITMAP
7000
7000
FE00
FE00
7000
7000
7FC0
7FE0
7070
7070
7070
7070
7070
7070
7070
7070
ENDCHAR
STARTCHAR CYRILLIC
ENCODING -1
SWIDTH 480 0
DWIDTH 12 0
BBX 9 16 2 0
BITMAP
0380
0700
0E00
1C00
0000
0000
E380
E700
EE00
FC00
F800
F800
FC00
EE00
E700
E380
ENDCHAR
STARTCHAR CYRILLIC
ENCODING -1
SWIDTH 480 0
DWIDTH 12 0
BBX 11 19 1 -4
BITMAP
71C0
3F80
1F00
0000
0000
E0E0
E0E0
E0E0
E0E0
E0E0
E0E0
E0E0
E0E0
7FE0
3FE0
00E0
00E0
1FC0
1F80
ENDCHAR
STARTCHAR CYRILLIC
ENCODING -1
SWIDTH 480 0
DWIDTH 12 0
BBX 11 14 1 -4
BITMAP
E0E0
E0E0
E0E0
E0E0
E0E0
E0E0
E0E0
E0E0
FFE0
FFE0
0E00
0E00
0E00
0E00
ENDCHAR
STARTCHAR CYRILLIC
ENCODING -1
SWIDTH 480 0
DWIDTH 12 0
BBX 11 16 1 0
BITMAP
00E0
00E0
FFE0
FFE0
E000
E000
E000
E000
E000
E000
E000
E000
E000
E000
E000
E000
ENDCHAR
STARTCHAR CYRILLIC
ENCODING -1
SWIDTH 480 0
DWIDTH 12 0
BBX 11 12 1 0
BITMAP
00E0
00E0
FFE0
FFE0
E000
E000
E000
E000
E000
E000
E000
E000
ENDCHAR
STARTCHAR HEBREW
ENCODING -1
SWIDTH 480 0
DWIDTH 12 0
BBX 11 10 1 0
BITMAP
E0E0
70E0
38E0
7CE0
EEE0
E7C0
E380
E1C0
E0E0
E060
ENDCHAR
STARTCHAR HEBREW
ENCODING -1
SWIDTH 480 0
DWIDTH 12 0
BBX 11 10 1 0
BITMAP
FE00
FF00
0380
0380
0380
0380
0380
0380
FFE0
FFE0
ENDCHAR
STARTCHAR HEBREW
ENCODING -1
SWIDTH 480 0
DWIDTH 12 0
BBX 11 10 1 0
BITMAP
FE00
FF00
0380
0380
0380
0380
0380
07C0
FEE0
FC60
ENDCHAR
STARTCHAR HEBREW
ENCODING -1
SWIDTH 480 0
DWIDTH 12 0
BBX 11 10 1 0
BITMAP
FFE0
FFE0
0380
0380
0380
0380
0380
0380
0380
0380
ENDCHAR
STARTCHAR HEBREW
ENCODING -1
SWIDTH 480 0
DWIDTH 12 0
BBX 11 10 1 0
BITMAP
FF80
FFC0
00E0
00E0
E0E0
E0E0
E0E0
E0E0
E0E0
E0E0
ENDCHAR
STARTCHAR HEBREW
ENCODING -1
SWIDTH 480 0
DWIDTH 12 0
BBX 3 10 5 0
BITMAP
E0
E0
E0
E0
E0
E0
E0
E0
E0
E0
ENDCHAR
STARTCHAR HEBREW
ENCODING -1
SWIDTH 480 0
DWIDTH 12 0
BBX 11 10 1 0
BITMAP
FFE0
FFE0
00E0
01C0
0380
0700
0E00
0E00
0E00
0E00
ENDCHAR
STARTCHAR HEBREW
ENCODING -1
SWIDTH 480 0
DWIDTH 12 0
BBX 11 10 1 0
BITMAP
FF80
FFC0
E0E0
E0E0
E0E0
E0E0
E0E0
E0E0
E0E0
E0E0
ENDCHAR
STARTCHAR HEBREW
ENCODING -1
SWIDTH 480 0
DWIDTH 12 0
BBX 11 10 1 0
BITMAP
EF80
EFC0
E0E0
E0E0
E0E0
E0E0
E0E0
E0E0
7FC0
3F80
ENDCHAR
STARTCHAR HEBREW
ENCODING -1
SWIDTH 480 0
DWIDTH 12 0
BBX 3 6 5 4
BITMAP
E0
E0
E0
E0
E0
E0
ENDCHAR
STARTCHAR HEBREW
ENCODING -1
SWIDTH 480 0
DWIDTH 12 0
BBX 11 14 1 -4
BITMAP
FF80
FFC0
00E0
00E0
00E0
00E0
00E0
00E0
00E0
00E0
00E0
00E0
00E0
00E0
ENDCHAR
STARTCHAR HEBREW
ENCODING -1
SWIDTH 480 0
DWIDTH 12 0
BBX 11 10 1 0
BITMAP
FF80
FFC0
00E0
00E0
00E0
00E0
00E0
00E0
FFC0
FF80
ENDCHAR
STARTCHAR HEBREW
ENCODING -1
SWIDTH 480 0
DWIDTH 12 0
BBX 11 11 1 0
BITMAP
E000
FFE0
FFE0
00E0
01C0
0380
0700
0E00
1C00
3800
7000
ENDCHAR
STARTCHAR HEBREW
ENCODING -1
SWIDTH 480 0
DWIDTH 12 0
BBX 11 10 1 0
BITMAP
FF80
FFC0
E0E0
E0E0
E0E0
E0E0
E0E0
E0E0
FFE0
FFE0
ENDCHAR
STARTCHAR HEBREW
ENCODING -1
SWIDTH 480 0
DWIDTH 12 0
BBX 11 10 1 0
BITMAP
EF80
7FC0
38E0
38E0
70E0
70E0
70E0
E0E0
EFE0
EFE0
ENDCHAR
STARTCHAR HEBREW
ENCODING -1
SWIDTH 480 0
DWIDTH 12 0
BBX 3 14 5 -4
BITMAP
E0
E0
E0
E0
E0
E0
E0
E0
E0
E0
E0
E0
E0
E0
ENDCHAR
STARTCHAR HEBREW
ENCODING -1
SWIDTH 480 0
DWIDTH 12 0
BBX 11 10 1 0
BITMAP
FF80
FFC0
00E0
00E0
00E0
00E0
00E0
00E0
FFE0
FFE0
ENDCHAR
STARTCHAR HEBREW
ENCODING -1
SWIDTH 480 0
DWIDTH 12 0
BBX 11 10 1 0
BITMAP
FF80
FFC0
E0E0
E0E0
E0E0
E0E0
E0E0
E0E0
7FC0
3F80
ENDCHAR
STARTCHAR HEBREW
ENCODING -1
SWIDTH 480 0
DWIDTH 12 0
BBX 11 10 1 0
BITMAP
E0E0
E0E0
E0E0
70E0
70E0
70E0
38E0
38E0
FFC0
FF80
ENDCHAR
STARTCHAR HEBREW
ENCODING -1
SWIDTH 480 0
DWIDTH 12 0
BBX 11 14 1 -4
BITMAP
FF80
FFC0
E0E0
E0E0
7EE0
3EE0
00E0
00E0
00E0
00E0
00E0
00E0
00E0
00E0
ENDCHAR
STARTCHAR HEBREW
ENCODING -1
SWIDTH 480 0
DWIDTH 12 0
BBX 11 10 1 0
BITMAP
FF80
FFC0
E0E0
E0E0
7EE0
3EE0
00E0
00E0
FFC0
FF80
ENDCHAR
STARTCHAR HEBREW
ENCODING -1
SWIDTH 480 0
DWIDTH 12 0
BBX 11 14 1 -4
BITMAP
C0E0
E0E0
70E0
38E0
1FC0
0F80
0E00
0E00
0E00
0E00
0E00
0E00
0E00
0E00
ENDCHAR
STARTCHAR HEBREW
ENCODING -1
SWIDTH 480 0
DWIDTH 12 0
BBX 11 10 1 0
BITMAP
C0E0
E0E0
70E0
39C0
1DC0
0FC0
0780
0380
FFE0
FFE0
ENDCHAR
STARTCHAR HEBREW
ENCODING -1
SWIDTH 480 0
DWIDTH 12 0
BBX 11 14 1 -4
BITMAP
FFE0
FFE0
00E0
00E0
E0E0
E1C0
E1C0
E380
E700
EE00
E000
E000
E000
E000
ENDCHAR
STARTCHAR HEBREW
ENCODING -1
SWIDTH 480 0
DWIDTH 12 0
BBX 11 10 1 0
BITMAP
FF80
FFC0
00E0
00E0
00E0
00E0
00E0
00E0
00E0
00E0
ENDCHAR
STARTCHAR HEBREW
ENCODING -1
SWIDTH 480 0
DWIDTH 12 0
BBX 11 10 1 0
BITMAP
EEE0
EEE0
EEE0
EEE0
EEE0
FEE0
FCE0
E0E0
FFC0
FF80
ENDCHAR
STARTCHAR HEBREW
ENCODING -1
SWIDTH 480 0
DWIDTH 12 0
BBX 11 10 1 0
BITMAP
FF80
FFC0
38E0
38E0
38E0
38E0
38E0
38E0
F0E0
E0E0
ENDCHAR
STARTCHAR LATIN
ENCODING -1
SWIDTH 480 0
DWIDTH 12 0
BBX 11 19 1 0
BITMAP
0E00
0E00
0E00
0000
0000
FF80
FFC0
E0E0
E0E0
E0E0
E0E0
FFC0
FFC0
E0E0
E0E0
E0E0
E0E0
FFC0
FF80
ENDCHAR
STARTCHAR LATIN
ENCODING -1
SWIDTH 480 0
DWIDTH 12 0
BBX 11 20 1 0
BITMAP
E000
E000
E000
0000
E000
E000
E000
E000
E000
E000
FF80
FFC0
E0E0
E0E0
E0E0
E0E0
E0E0
E0E0
FFC0
FF80
ENDCHAR
STARTCHAR LATIN
ENCODING -1
SWIDTH 480 0
DWIDTH 12 0
BBX 11 19 1 0
BITMAP
0E00
0E00
0E00
0000
0000
FF80
FFC0
E0E0
E0E0
E0E0
E0E0
E0E0
E0E0
E0E0
E0E0
E0E0
E0E0
FFC0
FF80
ENDCHAR
STARTCHAR LATIN
ENCODING -1
SWIDTH 480 0
DWIDTH 12 0
BBX 11 20 1 0
BITMAP
00E0
00E0
00E0
0000
00E0
00E0
00E0
00E0
00E0
00E0
3FE0
7FE0
E0E0
E0E0
E0E0
E0E0
E0E0
E0E0
7FE0
3FE0
ENDCHAR
STARTCHAR LATIN
ENCODING -1
SWIDTH 480 0
DWIDTH 12 0
BBX 11 19 1 0
BITMAP
0E00
0E00
0E00
0000
0000
FFE0
FFE0
E000
E000
E000
E000
FE00
FE00
E000
E000
E000
E000
E000
E000
ENDCHAR
STARTCHAR LATIN
ENCODING -1
SWIDTH 480 0
DWIDTH 12 0
BBX 7 20 3 0
BITMAP
38
38
38
00
3E
7E
E0
E0
E0
E0
F8
F8
E0
E0
E0
E0
E0
E0
E0
E0
ENDCHAR
STARTCHAR LATIN
ENCODING -1
SWIDTH 480 0
DWIDTH 12 0
BBX 11 19 1 0
BITMAP
0E00
0E00
0E00
0000
0000
C060
E0E0
F1E0
FBE0
FFE0
EEE0
E4E0
E0E0
E0E0
E0E0
E0E0
E0E0
E0E0
E0E0
ENDCHAR
STARTCHAR LATIN
ENCODING -1
SWIDTH 480 0
DWIDTH 12 0
BBX 11 15 1 0
BITMAP
0E00
0E00
0E00
0000
0000
FB80
FFC0
EEE0
EEE0
EEE0
EEE0
EEE0
EEE0
E0E0
E0E0
ENDCHAR
STARTCHAR LATIN
ENCODING -1
SWIDTH 480 0
DWIDTH 12 0
BBX 11 19 1 0
BITMAP
0E00
0E00
0E00
0000
0000
FF80
FFC0
E0E0
E0E0
E0E0
E0E0
E0E0
E0E0
FFC0
FF80
E000
E000
E000
E000
ENDCHAR
STARTCHAR LATIN
ENCODING -1
SWIDTH 480 0
DWIDTH 12 0
BBX 11 19 1 -4
BITMAP
0E00
0E00
0E00
0000
0000
FF80
FFC0
E0E0
E0E0
E0E0
E0E0
E0E0
E0E0
FFC0
FF80
E000
E000
E000
E000
ENDCHAR
STARTCHAR LATIN
ENCODING -1
SWIDTH 480 0
DWIDTH 12 0
BBX 11 19 1 0
BITMAP
0E00
0E00
0E00
0000
0000
3FE0
7FE0
E000
E000
E000
E000
7F80
3FC0
00E0
00E0
00E0
00E0
FFC0
FF80
ENDCHAR
STARTCHAR LATIN
ENCODING -1
SWIDTH 480 0
DWIDTH 12 0
BBX 11 15 1 0
BITMAP
0E00
0E00
0E00
0000
0000
3FE0
7FE0
E000
E000
7F80
3FC0
00E0
00E0
FFC0
FF80
ENDCHAR
STARTCHAR LATIN
ENCODING -1
SWIDTH 480 0
DWIDTH 12 0
BBX 11 19 1 0
BITMAP
0E00
0E00
0E00
0000
0000
FFE0
FFE0
0E00
0E00
0E00
0E00
0E00
0E00
0E00
0E00
0E00
0E00
0E00
0E00
ENDCHAR
STARTCHAR LATIN
ENCODING -1
SWIDTH 480 0
DWIDTH 12 0
BBX 9 20 2 0
BITMAP
3800
3800
3800
0000
3800
3800
3800
3800
3800
3800
FE00
FE00
3800
3800
3800
3800
3800
3800
1F80
0F80
ENDCHAR
STARTCHAR LATIN
ENCODING -1
SWIDTH 480 0
DWIDTH 12 0
BBX 11 20 1 0
BITMAP
7000
3800
1C00
0E00
0000
0000
E0E0
E0E0
E0E0
E0E0
E0E0
E0E0
E0E0
E4E0
EEE0
FFE0
FBE0
F1E0
E0E0
C060
ENDCHAR
STARTCHAR LATIN
ENCODING -1
SWIDTH 480 0
DWIDTH 12 0
BBX 11 16 1 0
BITMAP
7000
3800
1C00
0E00
0000
0000
E0E0
E0E0
E0E0
E4E0
EEE0
FFE0
FBE0
F1E0
E0E0
C060
ENDCHAR
STARTCHAR LATIN
ENCODING -1
SWIDTH 480 0
DWIDTH 12 0
BBX 11 20 1 0
BITMAP
01C0
0380
0700
0E00
0000
0000
E0E0
E0E0
E0E0
E0E0
E0E0
E0E0
E0E0
E4E0
EEE0
FFE0
FBE0
F1E0
E0E0
C060
ENDCHAR
STARTCHAR LATIN
ENCODING -1
SWIDTH 480 0
DWIDTH 12 0
BBX 11 16 1 0
BITMAP
01C0
0380
0700
0E00
0000
0000
E0E0
E0E0
E0E0
E4E0
EEE0
FFE0
FBE0
F1E0
E0E0
C060
ENDCHAR
STARTCHAR LATIN
ENCODING -1
SWIDTH 480 0
DWIDTH 12 0
BBX 11 19 1 0
BITMAP
71C0
71C0
71C0
0000
0000
E0E0
E0E0
E0E0
E0E0
E0E0
E0E0
E0E0
E4E0
EEE0
FFE0
FBE0
F1E0
E0E0
C060
ENDCHAR
STARTCHAR LATIN
ENCODING -1
SWIDTH 480 0
DWIDTH 12 0
BBX 11 15 1 0
BITMAP
71C0
71C0
71C0
0000
0000
E0E0
E0E0
E0E0
E0E0
EEE0
FFE0
FBE0
F1E0
E0E0
C060
ENDCHAR
STARTCHAR LATIN
ENCODING -1
SWIDTH 480 0
DWIDTH 12 0
BBX 11 20 1 0
BITMAP
7000
3800
1C00
0E00
0000
0000
E0E0
E0E0
E0E0
E0E0
71C0
3B80
1F00
0E00
0E00
0E00
0E00
0E00
0E00
0E00
ENDCHAR
STARTCHAR LATIN
ENCODING -1
SWIDTH 480 0
DWIDTH 12 0
BBX 11 20 1 -4
BITMAP
7000
3800
1C00
0E00
0000
0000
E0E0
E0E0
E0E0
E0E0
E0E0
E0E0
E0E0
E0E0
7FE0
3FE0
00E0
00E0
1FC0
1F80
ENDCHAR
STARTCHAR HORIZONTAL
ENCODING -1
SWIDTH 480 0
DWIDTH 12 0
BBX 12 3 0 6
BITMAP
FFF0
FFF0
FFF0
ENDCHAR
STARTCHAR DOUBLE
ENCODING -1
SWIDTH 480 0
DWIDTH 12 0
BBX 11 7 1 -4
BITMAP
FFE0
FFE0
FFE0
0000
FFE0
FFE0
FFE0
ENDCHAR
STARTCHAR LEFT
ENCODING -1
SWIDTH 480 0
DWIDTH 12 0
BBX 5 5 5 12
BITMAP
38
70
E0
E0
E0
ENDCHAR
STARTCHAR RIGHT
ENCODING -1
SWIDTH 480 0
DWIDTH 12 0
BBX 5 5 3 12
BITMAP
38
38
38
70
E0
ENDCHAR
STARTCHAR SINGLE
ENCODING -1
SWIDTH 480 0
DWIDTH 12 0
BBX 5 5 5 12
BITMAP
E0
E0
E0
70
38
ENDCHAR
STARTCHAR LEFT
ENCODING -1
SWIDTH 480 0
DWIDTH 12 0
BBX 9 5 3 12
BITMAP
3B80
7700
EE00
EE00
EE00
ENDCHAR
STARTCHAR RIGHT
ENCODING -1
SWIDTH 480 0
DWIDTH 12 0
BBX 9 5 1 12
BITMAP
3B80
3B80
3B80
7700
EE00
ENDCHAR
STARTCHAR DOUBLE
ENCODING -1
SWIDTH 480 0
DWIDTH 12 0
BBX 9 5 1 -3
BITMAP
3B80
3B80
3B80
7700
EE00
ENDCHAR
STARTCHAR DOUBLE
ENCODING -1
SWIDTH 480 0
DWIDTH 12 0
BBX 9 5 3 12
BITMAP
EE00
EE00
EE00
7700
3B80
ENDCHAR
STARTCHAR EURO
ENCODING -1
SWIDTH 480 0
DWIDTH 12 0
BBX 11 14 1 0
BITMAP
1FE0
3FE0
7000
7000
FF80
FF00
7000
7000
FF00
FE00
7000
7000
3FE0
1FE0
ENDCHAR
STARTCHAR DRACHMA
ENCODING -1
SWIDTH 480 0
DWIDTH 12 0
BBX 12 18 0 -4
BITMAP
FC00
FE00
E700
E700
E7C0
E7E0
E670
E670
E670
E670
E670
E670
FFE0
FFC0
0700
0700
0700
0700
ENDCHAR
STARTCHAR HRYVNIA
ENCODING -1
SWIDTH 480 0
DWIDTH 12 0
BBX 11 14 1 0
BITMAP
FF80
FFC0
00E0
00E0
FFE0
FFE0
3FC0
7F80
FFE0
FFE0
E000
E000
7FE0
3FE0
ENDCHAR
STARTCHAR RUBLE
ENCODING -1
SWIDTH 480 0
DWIDTH 12 0
BBX 11 14 1 0
BITMAP
FF80
FFC0
E0E0
E0E0
E0E0
E0E0
FFC0
FF80
E000
E000
FF80
FF80
E000
E000
ENDCHAR
STARTCHAR NUMERO
ENCODING -1
SWIDTH 480 0
DWIDTH 12 0
BBX 12 14 0 0
BITMAP
E700
E700
E700
E700
E760
F7F0
FFF0
FF90
EFF0
E7F0
E760
E700
E7F0
E7F0
ENDCHAR
STARTCHAR Private
ENCODING -1
SWIDTH 480 0
DWIDTH 12 0
BBX 12 16 0 0
BITMAP
E000
E000
E000
E000
E000
E000
E030
E070
E0E0
E0E0
E0F0
E0F0
E0E0
E0E0
7E70
3E30
ENDCHAR
STARTCHAR char57345
ENCODING -1
SWIDTH 480 0
DWIDTH 12 0
BBX 12 14 0 -4
BITMAP
F830
FC70
0EE0
0EE0
FEE0
FEE0
00E0
00E0
F870
F830
0000
0000
0010
0010
ENDCHAR
STARTCHAR char57346
ENCODING -1
SWIDTH 480 0
DWIDTH 12 0
BBX 12 14 0 -4
BITMAP
FE30
FE70
0EE0
0EE0
0EE0
0EE0
0EE0
0EE0
FE70
FE30
0E00
0E00
FC10
F810
ENDCHAR
STARTCHAR char57347
ENCODING -1
SWIDTH 480 0
DWIDTH 12 0
BBX 12 18 0 -4
BITMAP
0070
0070
0000
0000
FEF0
FEF0
0E70
0E70
0E70
0E70
0E70
0E70
FE70
FE70
0E00
0E00
FC00
F800
ENDCHAR
STARTCHAR char57348
ENCODING -1
SWIDTH 480 0
DWIDTH 12 0
BBX 11 10 1 0
BITMAP
3F80
7FC0
E0E0
E0E0
FFE0
FFE0
E000
E000
7F80
3F80
ENDCHAR
STARTCHAR char57349
ENCODING -1
SWIDTH 480 0
DWIDTH 12 0
BBX 11 14 1 0
BITMAP
FFE0
FBE0
FBE0
71C0
0000
0E00
0E00
0E00
0000
0000
E0E0
E0E0
7FC0
3F80
ENDCHAR
STARTCHAR REPLACEMENT
ENCODING -1
SWIDTH 480 0
DWIDTH 12 0
BBX 12 23 0 -4
BITMAP
0600
0F00
1F80
3FC0
7FE0
C070
C030
FF10
FF10
FF10
FF30
FE70
FCF0
F8F0
F8F0
FFF0
FFF0
F8F0
78E0
38C0
1F80
0F00
0600
ENDCHAR
STARTCHAR UNIMPLEMENTED
ENCODING -1
SWIDTH 480 0
DWIDTH 12 0
BBX 11 20 1 -2
BITMAP
FFE0
FFE0
FFE0
FFE0
FFE0
FFE0
FFE0
FFE0
FFE0
FFE0
FFE0
FFE0
FFE0
FFE0
FFE0
FFE0
FFE0
FFE0
FFE0
FFE0
ENDCHAR
ENDFONT
